<svg width="54" height="54" viewBox="0 0 54 54" fill="none" xmlns="http://www.w3.org/2000/svg">
<path d="M30.1591 34.9609C30.0801 34.8827 29.9734 34.8388 29.8622 34.8388C29.751 34.8388 29.6444 34.8827 29.5653 34.9609L23.46 41.0663C20.6332 43.8931 15.8624 44.1926 12.7414 41.0663C9.6151 37.9401 9.91459 33.1745 12.7414 30.3477L18.8468 24.2423C19.0096 24.0795 19.0096 23.8115 18.8468 23.6486L16.7556 21.5574C16.6766 21.4792 16.5699 21.4353 16.4587 21.4353C16.3475 21.4353 16.2409 21.4792 16.1619 21.5574L10.0565 27.6628C5.61139 32.1079 5.61139 39.3009 10.0565 43.7407C14.5015 48.1805 21.6945 48.1858 26.1343 43.7407L32.2397 37.6353C32.4026 37.4724 32.4026 37.2045 32.2397 37.0416L30.1591 34.9609ZM43.7465 10.056C39.3014 5.6109 32.1084 5.6109 27.6686 10.056L21.5579 16.1614C21.4797 16.2404 21.4358 16.347 21.4358 16.4582C21.4358 16.5694 21.4797 16.6761 21.5579 16.7551L23.6439 18.841C23.8067 19.0039 24.0747 19.0039 24.2376 18.841L30.343 12.7356C33.1697 9.90885 37.9406 9.60936 41.0616 12.7356C44.1878 15.8619 43.8883 20.6274 41.0616 23.4542L34.9562 29.5596C34.8779 29.6386 34.8341 29.7453 34.8341 29.8565C34.8341 29.9676 34.8779 30.0743 34.9562 30.1533L37.0473 32.2445C37.2102 32.4074 37.4782 32.4074 37.6411 32.2445L43.7465 26.1391C48.1863 21.694 48.1863 14.501 43.7465 10.056ZM32.0558 19.5608C31.9768 19.4826 31.8702 19.4387 31.759 19.4387C31.6478 19.4387 31.5411 19.4826 31.4621 19.5608L19.5613 31.4564C19.4831 31.5354 19.4392 31.6421 19.4392 31.7532C19.4392 31.8644 19.4831 31.9711 19.5613 32.0501L21.642 34.1308C21.8049 34.2936 22.0728 34.2936 22.2357 34.1308L34.1313 22.2352C34.2941 22.0724 34.2941 21.8044 34.1313 21.6415L32.0558 19.5608Z" fill="white"/>
</svg>
