<svg width="76" height="75" viewBox="0 0 76 75" fill="none" xmlns="http://www.w3.org/2000/svg">
<path d="M42.8349 48.8094C42.725 48.7016 42.5766 48.6411 42.422 48.6411C42.2673 48.6411 42.1189 48.7016 42.0091 48.8094L33.517 57.2264C29.5852 61.1235 22.9494 61.5363 18.6083 57.2264C14.26 52.9165 14.6765 46.3466 18.6083 42.4496L27.1004 34.0326C27.327 33.808 27.327 33.4386 27.1004 33.214L24.1918 30.3311C24.0819 30.2233 23.9335 30.1628 23.7788 30.1628C23.6242 30.1628 23.4758 30.2233 23.3659 30.3311L14.8738 38.7481C8.69114 44.8762 8.69114 54.7926 14.8738 60.9134C21.0566 67.0342 31.0614 67.0415 37.2368 60.9134L45.7289 52.4964C45.9555 52.2718 45.9555 51.9024 45.7289 51.6779L42.8349 48.8094ZM61.7338 14.4749C55.5511 8.34689 45.5462 8.34689 39.3708 14.4749L30.8714 22.892C30.7626 23.0009 30.7016 23.1479 30.7016 23.3012C30.7016 23.4545 30.7626 23.6016 30.8714 23.7105L33.7728 26.5862C33.9993 26.8107 34.372 26.8107 34.5986 26.5862L43.0907 18.1692C47.0224 14.2721 53.6583 13.8592 57.9993 18.1692C62.3477 22.4791 61.9311 29.049 57.9993 32.946L49.5072 41.363C49.3984 41.4719 49.3374 41.619 49.3374 41.7723C49.3374 41.9256 49.3984 42.0726 49.5072 42.1816L52.4159 45.0645C52.6424 45.289 53.0151 45.289 53.2417 45.0645L61.7338 36.6475C67.9092 30.5194 67.9092 20.603 61.7338 14.4749ZM45.4731 27.5785C45.3632 27.4707 45.2148 27.4102 45.0602 27.4102C44.9056 27.4102 44.7572 27.4707 44.6473 27.5785L28.0943 43.978C27.9855 44.0869 27.9245 44.2339 27.9245 44.3872C27.9245 44.5405 27.9855 44.6876 28.0943 44.7965L30.9883 47.6649C31.2149 47.8895 31.5876 47.8895 31.8142 47.6649L48.3598 31.2655C48.5864 31.041 48.5864 30.6715 48.3598 30.447L45.4731 27.5785Z" fill="white"/>
</svg>
