<svg width="76" height="75" viewBox="0 0 76 75" fill="none" xmlns="http://www.w3.org/2000/svg">
<path d="M42.2841 48.8094C42.1742 48.7016 42.0258 48.6411 41.8712 48.6411C41.7165 48.6411 41.5682 48.7016 41.4583 48.8094L32.9662 57.2264C29.0344 61.1235 22.3986 61.5363 18.0575 57.2264C13.7092 52.9165 14.1257 46.3466 18.0575 42.4496L26.5496 34.0326C26.7762 33.808 26.7762 33.4386 26.5496 33.214L23.641 30.3311C23.5311 30.2233 23.3827 30.1628 23.2281 30.1628C23.0734 30.1628 22.925 30.2233 22.8151 30.3311L14.3231 38.7481C8.14036 44.8762 8.14036 54.7926 14.3231 60.9134C20.5058 67.0342 30.5106 67.0415 36.686 60.9134L45.1781 52.4964C45.4047 52.2718 45.4047 51.9024 45.1781 51.6779L42.2841 48.8094ZM61.183 14.4749C55.0003 8.34689 44.9954 8.34689 38.82 14.4749L30.3206 22.892C30.2118 23.0009 30.1508 23.1479 30.1508 23.3012C30.1508 23.4545 30.2118 23.6016 30.3206 23.7105L33.222 26.5862C33.4485 26.8107 33.8212 26.8107 34.0478 26.5862L42.5399 18.1692C46.4717 14.2721 53.1075 13.8592 57.4485 18.1692C61.7969 22.4791 61.3803 29.049 57.4485 32.946L48.9564 41.363C48.8476 41.4719 48.7866 41.619 48.7866 41.7723C48.7866 41.9256 48.8476 42.0726 48.9564 42.1816L51.8651 45.0645C52.0916 45.289 52.4644 45.289 52.6909 45.0645L61.183 36.6475C67.3584 30.5194 67.3584 20.603 61.183 14.4749ZM44.9223 27.5785C44.8125 27.4707 44.6641 27.4102 44.5094 27.4102C44.3548 27.4102 44.2064 27.4707 44.0965 27.5785L27.5435 43.978C27.4347 44.0869 27.3737 44.2339 27.3737 44.3872C27.3737 44.5405 27.4347 44.6876 27.5435 44.7965L30.4376 47.6649C30.6641 47.8895 31.0368 47.8895 31.2634 47.6649L47.8091 31.2655C48.0356 31.041 48.0356 30.6715 47.8091 30.447L44.9223 27.5785Z" fill="white"/>
</svg>
