<svg width="75" height="75" viewBox="0 0 75 75" fill="none" xmlns="http://www.w3.org/2000/svg">
<path d="M42.0605 48.8094C41.9506 48.7016 41.8022 48.6411 41.6475 48.6411C41.4929 48.6411 41.3445 48.7016 41.2346 48.8094L32.7426 57.2264C28.8108 61.1235 22.175 61.5363 17.8339 57.2264C13.4855 52.9165 13.9021 46.3466 17.8339 42.4496L26.326 34.0326C26.5525 33.808 26.5525 33.4386 26.326 33.214L23.4173 30.3311C23.3075 30.2233 23.1591 30.1628 23.0044 30.1628C22.8498 30.1628 22.7014 30.2233 22.5915 30.3311L14.0994 38.7481C7.91673 44.8762 7.91673 54.7926 14.0994 60.9134C20.2821 67.0342 30.287 67.0415 36.4624 60.9134L44.9545 52.4964C45.181 52.2718 45.181 51.9024 44.9545 51.6779L42.0605 48.8094ZM60.9594 14.4749C54.7767 8.34689 44.7718 8.34689 38.5964 14.4749L30.097 22.892C29.9882 23.0009 29.9272 23.1479 29.9272 23.3012C29.9272 23.4545 29.9882 23.6016 30.097 23.7105L32.9983 26.5862C33.2249 26.8107 33.5976 26.8107 33.8242 26.5862L42.3162 18.1692C46.248 14.2721 52.8838 13.8592 57.2249 18.1692C61.5732 22.4791 61.1567 29.049 57.2249 32.946L48.7328 41.363C48.624 41.4719 48.563 41.619 48.563 41.7723C48.563 41.9256 48.624 42.0726 48.7328 42.1816L51.6415 45.0645C51.868 45.289 52.2407 45.289 52.4673 45.0645L60.9594 36.6475C67.1348 30.5194 67.1348 20.603 60.9594 14.4749ZM44.6987 27.5785C44.5888 27.4707 44.4404 27.4102 44.2858 27.4102C44.1312 27.4102 43.9828 27.4707 43.8729 27.5785L27.3199 43.978C27.2111 44.0869 27.1501 44.2339 27.1501 44.3872C27.1501 44.5405 27.2111 44.6876 27.3199 44.7965L30.2139 47.6649C30.4405 47.8895 30.8132 47.8895 31.0398 47.6649L47.5854 31.2655C47.812 31.041 47.812 30.6715 47.5854 30.447L44.6987 27.5785Z" fill="white"/>
</svg>
