<svg width="62" height="62" viewBox="0 0 62 62" fill="none" xmlns="http://www.w3.org/2000/svg">
<g clip-path="url(#clip0_614_1005)">
<path d="M42.6942 24.4714V34.2072C42.6942 36.0766 43.7326 36.8667 45.3824 36.8667C45.7232 36.8795 46.0641 36.845 46.3954 36.7644V34.5732C46.2707 34.5872 46.1453 34.5929 46.0198 34.5905C45.5851 34.5905 45.2297 34.3984 45.2297 33.8595V24.4714H42.6942ZM47.9809 24.4714V34.2072C47.9809 36.0766 49.0203 36.8667 50.6706 36.8667C51.0135 36.88 51.3565 36.8456 51.6898 36.7644V34.5732C51.5658 34.5871 51.441 34.5929 51.3162 34.5905C50.8738 34.5905 50.5155 34.3984 50.5155 33.8595V24.4714H47.9809ZM17.188 25.3744V27.7572H20.0107V36.798H22.7346V27.7572H25.5578V25.3749L17.188 25.3744ZM37.0194 27.7183C34.308 27.7183 32.5717 29.6837 32.5717 32.4306C32.5717 35.2822 34.0688 36.9757 37.454 36.9757C38.4582 36.984 39.4553 36.8058 40.3945 36.4503V34.3201C39.5251 34.5987 38.5467 34.8753 37.5429 34.8753C36.1951 34.8753 35.2566 34.4325 35.0275 33.152C35.7326 33.2291 36.4412 33.2706 37.1505 33.2764C39.0789 33.2764 40.7062 32.7596 40.7062 30.8922C40.7062 29.08 39.0328 27.7183 37.0194 27.7183ZM57.209 27.7221C54.4857 27.7221 52.9045 29.6016 52.9045 32.3485C52.9045 35.0776 54.5039 37.0074 57.209 37.0074C59.9141 37.0074 61.4789 35.1011 61.4789 32.3485C61.4789 29.5958 59.9324 27.7221 57.209 27.7221ZM31.3806 27.7764C30.1731 27.7875 29.4723 28.4849 29.0242 29.6093V27.9056H26.5069V36.798H29.0237V32.1381C29.0237 30.7135 29.8498 30.2788 31.6284 30.4171V27.7831C31.5459 27.7779 31.4632 27.7756 31.3806 27.7764ZM36.9675 29.6583C37.6807 29.6583 38.2537 30.1434 38.2537 30.8052C38.2537 31.6568 37.3551 31.9234 36.3195 31.9234C35.8788 31.921 35.4389 31.8857 35.0035 31.8177C35.0361 31.4026 35.1554 30.999 35.3537 30.6328C35.5123 30.3424 35.7454 30.0994 36.029 29.9289C36.3126 29.7584 36.6366 29.6664 36.9675 29.6626V29.6583ZM57.209 29.9762C58.4698 29.9762 59.0126 31.0108 59.0126 32.3485C59.0126 33.6861 58.4838 34.7471 57.209 34.7471C55.9343 34.7471 55.3733 33.6861 55.3733 32.3485C55.3733 31.0084 55.9482 29.9762 57.209 29.9762Z" fill="#293856"/>
<path d="M1.20461 24.4714H11.1301C11.2885 24.4709 11.4453 24.5017 11.5917 24.5621C11.7381 24.6225 11.8711 24.7112 11.9831 24.8231C12.095 24.9351 12.1837 25.0681 12.2441 25.2145C12.3044 25.3608 12.3353 25.5177 12.3347 25.676V35.6016C12.3353 35.7599 12.3044 35.9168 12.2441 36.0632C12.1837 36.2095 12.095 36.3425 11.9831 36.4545C11.8711 36.5665 11.7381 36.6552 11.5917 36.7155C11.4453 36.7759 11.2885 36.8067 11.1301 36.8062H1.20461C1.04628 36.8067 0.88941 36.7759 0.743031 36.7155C0.596652 36.6552 0.463655 36.5665 0.351696 36.4545C0.239737 36.3425 0.151025 36.2095 0.0906678 36.0632C0.0303104 35.9168 -0.000501315 35.7599 6.16824e-06 35.6016V25.676C-0.000501315 25.5177 0.0303104 25.3608 0.0906678 25.2145C0.151025 25.0681 0.239737 24.9351 0.351696 24.8231C0.463655 24.7112 0.596652 24.6225 0.743031 24.5621C0.88941 24.5017 1.04628 24.4709 1.20461 24.4714Z" fill="url(#paint0_linear_614_1005)"/>
<path d="M7.54779 26.075H10.1534C10.4738 26.075 10.7317 26.3334 10.7317 26.6532V30.8934C10.732 30.9694 10.7172 31.0447 10.6882 31.115C10.6593 31.1853 10.6167 31.2491 10.5629 31.3029C10.5092 31.3566 10.4453 31.3992 10.3751 31.4282C10.3048 31.4571 10.2295 31.4719 10.1534 31.4717H7.54779C7.47177 31.4719 7.39646 31.4571 7.32619 31.4282C7.25591 31.3992 7.19206 31.3566 7.13831 31.3029C7.08456 31.2491 7.04197 31.1853 7.013 31.115C6.98403 31.0447 6.96925 30.9694 6.9695 30.8934V26.6532C6.96931 26.5773 6.98414 26.502 7.01314 26.4318C7.04214 26.3616 7.08474 26.2978 7.13848 26.2441C7.19222 26.1904 7.25605 26.1478 7.3263 26.1189C7.39654 26.0899 7.47182 26.0752 7.54779 26.0754V26.075ZM2.18181 26.075H4.78747C5.10783 26.075 5.36576 26.3334 5.36576 26.6532V33.9769C5.36601 34.053 5.35123 34.1283 5.32225 34.1986C5.29328 34.2688 5.2507 34.3327 5.19695 34.3864C5.1432 34.4402 5.07935 34.4828 5.00907 34.5117C4.93879 34.5407 4.86348 34.5555 4.78747 34.5552H2.18181C2.10579 34.5555 2.03048 34.5407 1.96021 34.5117C1.88993 34.4828 1.82608 34.4402 1.77233 34.3864C1.71858 34.3327 1.67599 34.2688 1.64702 34.1986C1.61805 34.1283 1.60327 34.053 1.60352 33.9769V26.6532C1.60352 26.3329 1.86144 26.075 2.18181 26.075Z" fill="white"/>
</g>
<defs>
<linearGradient id="paint0_linear_614_1005" x1="6.1676" y1="24.4714" x2="6.1676" y2="36.8066" gradientUnits="userSpaceOnUse">
<stop stop-color="#2684FF"/>
<stop offset="1" stop-color="#0052CC"/>
</linearGradient>
<clipPath id="clip0_614_1005">
<rect width="61.4792" height="61.4792" fill="white"/>
</clipPath>
</defs>
</svg>
