<svg width="67" height="67" viewBox="0 0 67 67" fill="none" xmlns="http://www.w3.org/2000/svg">
<path d="M14.0715 41.6746C14.0715 45.459 10.9851 48.5501 7.20017 48.5501C3.41522 48.5501 0.325195 45.459 0.325195 41.6746C0.325195 37.8901 3.41625 34.7991 7.20069 34.7991H14.0721L14.0715 41.6746ZM17.5354 41.6746C17.5354 37.8901 20.6264 34.7991 24.4109 34.7991C28.1953 34.7991 31.2863 37.8896 31.2863 41.6746V58.8852C31.2863 62.6697 28.1958 65.7607 24.4109 65.7607C20.6264 65.7607 17.5354 62.6697 17.5354 58.8852V41.6746Z" fill="#DE1C59"/>
<path d="M24.4109 14.0715C20.6264 14.0715 17.5354 10.9851 17.5354 7.20017C17.5354 3.41522 20.6264 0.325195 24.4109 0.325195C28.1953 0.325195 31.2863 3.41625 31.2863 7.20069V14.0721L24.4109 14.0715ZM24.4109 17.5354C28.1953 17.5354 31.2863 20.6264 31.2863 24.4109C31.2863 28.1953 28.1958 31.2863 24.4109 31.2863H7.20017C3.41573 31.2863 0.325195 28.1958 0.325195 24.4109C0.325195 20.6264 3.41625 17.5354 7.20069 17.5354H24.4109Z" fill="#35C5F0"/>
<path d="M52.0136 24.4109C52.0136 20.6264 55.1 17.5354 58.885 17.5354C62.67 17.5354 65.7605 20.6264 65.7605 24.4109C65.7605 28.1953 62.6694 31.2863 58.885 31.2863H52.0136V24.4109ZM48.5498 24.4109C48.5498 28.1953 45.4588 31.2863 41.6743 31.2863C37.8899 31.2863 34.7988 28.1958 34.7988 24.4109V7.20017C34.7988 3.41573 37.8894 0.325195 41.6743 0.325195C45.4588 0.325195 48.5498 3.41625 48.5498 7.20069V24.4109Z" fill="#2EB57D"/>
<path d="M41.6743 52.0139C45.4588 52.0139 48.5498 55.1003 48.5498 58.8852C48.5498 62.6702 45.4588 65.7607 41.6743 65.7607C37.8899 65.7607 34.7988 62.6697 34.7988 58.8852V52.0139H41.6743ZM41.6743 48.5501C37.8899 48.5501 34.7988 45.459 34.7988 41.6746C34.7988 37.8901 37.8894 34.7991 41.6743 34.7991H58.885C62.6694 34.7991 65.7605 37.8896 65.7605 41.6746C65.7605 45.459 62.6694 48.5501 58.885 48.5501H41.6743Z" fill="#EBB02E"/>
</svg>
