<svg width="354" height="38" viewBox="0 0 354 38" fill="none" xmlns="http://www.w3.org/2000/svg">
<path d="M56.951 18.9409C56.951 19.283 56.8529 19.6174 56.669 19.9018C56.4852 20.1862 56.2239 20.4079 55.9182 20.5388C55.6125 20.6697 55.2761 20.704 54.9516 20.6373C54.6271 20.5705 54.329 20.4058 54.095 20.1639C53.861 19.922 53.7017 19.6138 53.6371 19.2783C53.5726 18.9428 53.6057 18.5951 53.7323 18.279C53.859 17.963 54.0734 17.6929 54.3485 17.5028C54.6236 17.3128 54.9471 17.2113 55.278 17.2113C55.7217 17.2113 56.1472 17.3935 56.461 17.7179C56.7747 18.0423 56.951 18.4822 56.951 18.9409Z" fill="#80CEE7"/>
<path d="M118.447 18.4486C118.447 18.7906 118.349 19.125 118.165 19.4095C117.981 19.6939 117.72 19.9156 117.414 20.0465C117.109 20.1774 116.772 20.2116 116.448 20.1449C116.123 20.0782 115.825 19.9134 115.591 19.6716C115.357 19.4297 115.198 19.1215 115.133 18.786C115.069 18.4505 115.102 18.1027 115.228 17.7867C115.355 17.4706 115.569 17.2005 115.845 17.0105C116.12 16.8204 116.443 16.719 116.774 16.719C117.218 16.719 117.643 16.9012 117.957 17.2256C118.271 17.5499 118.447 17.9898 118.447 18.4486Z" fill="#80CEE7"/>
</svg>
