<svg width="29" height="29" viewBox="0 0 29 29" fill="none" xmlns="http://www.w3.org/2000/svg">
<g clip-path="url(#clip0_541_625)">
<path d="M26.5757 0H2.0379C0.91354 0 0 0.926317 0 2.06345V26.5565C0 27.6937 0.91354 28.62 2.0379 28.62H26.5757C27.7001 28.62 28.62 27.6937 28.62 26.5565V2.06345C28.62 0.926317 27.7001 0 26.5757 0ZM8.64988 24.5314H4.40799V10.873H8.65627V24.5314H8.64988ZM6.52894 9.00763C5.16821 9.00763 4.06941 7.90244 4.06941 6.5481C4.06941 5.19376 5.16821 4.08857 6.52894 4.08857C7.88328 4.08857 8.98847 5.19376 8.98847 6.5481C8.98847 7.90883 7.88967 9.00763 6.52894 9.00763ZM24.5506 24.5314H20.3087V17.8875C20.3087 16.3032 20.2768 14.2653 18.1047 14.2653C15.8943 14.2653 15.5557 15.9901 15.5557 17.7725V24.5314H11.3138V10.873H15.3833V12.7385H15.4407C16.0093 11.6652 17.3956 10.5345 19.459 10.5345C23.752 10.5345 24.5506 13.3645 24.5506 17.0442V24.5314Z" fill="#1E1E1E"/>
</g>
<defs>
<clipPath id="clip0_541_625">
<rect width="28.62" height="28.62" fill="white"/>
</clipPath>
</defs>
</svg>
