<svg width="46" height="45" viewBox="0 0 46 45" fill="none" xmlns="http://www.w3.org/2000/svg">
<path d="M41.0545 15.245V31.0758C41.0545 32.5485 40.4708 33.961 39.4318 35.0024C38.3928 36.0438 36.9836 36.6289 35.5142 36.6289H11.137C9.66759 36.6289 8.25839 36.0438 7.21939 35.0024C6.18039 33.961 5.59668 32.5485 5.59668 31.0758V15.245L22.7627 25.3694C22.9332 25.4702 23.1276 25.5234 23.3256 25.5234C23.5236 25.5234 23.7179 25.4702 23.8885 25.3694L41.0545 15.245ZM35.5142 7.75272C36.8774 7.7525 38.1929 8.25606 39.2089 9.16707C40.2249 10.0781 40.8702 11.3326 41.0212 12.6905L23.3256 23.1237L5.62992 12.6905C5.78097 11.3326 6.42622 10.0781 7.44225 9.16707C8.45827 8.25606 9.77373 7.7525 11.137 7.75272H35.5142Z" fill="#1E1E1E"/>
</svg>
