<svg width="137" height="27" viewBox="0 0 137 27" fill="none" xmlns="http://www.w3.org/2000/svg">
<path d="M23.4096 0.289597H2.47272C1.51336 0.289597 0.733887 1.08 0.733887 2.05029V22.9497C0.733887 23.92 1.51336 24.7104 2.47272 24.7104H23.4096C24.369 24.7104 25.1539 23.92 25.1539 22.9497V2.05029C25.1539 1.08 24.369 0.289597 23.4096 0.289597ZM8.1144 21.2217H4.495V9.56732H8.11985V21.2217H8.1144ZM6.3047 7.97561C5.14366 7.97561 4.20611 7.03257 4.20611 5.87694C4.20611 4.72132 5.14366 3.77828 6.3047 3.77828C7.46029 3.77828 8.40329 4.72132 8.40329 5.87694C8.40329 7.03802 7.46574 7.97561 6.3047 7.97561ZM21.6817 21.2217H18.0623V15.5526C18.0623 14.2007 18.035 12.4618 16.1817 12.4618C14.2957 12.4618 14.0068 13.9336 14.0068 15.4545V21.2217H10.3874V9.56732H13.8596V11.159H13.9087C14.3938 10.2433 15.5767 9.27841 17.3373 9.27841C21.0003 9.27841 21.6817 11.6932 21.6817 14.8331V21.2217Z" fill="white"/>
<path d="M58.1873 11.0773C57.6071 10.868 57.6016 10.5299 58.1984 10.3145L79.4118 2.6608C79.9997 2.44903 80.3364 2.80518 80.1719 3.42845L74.1106 26.3931C73.9439 27.0296 73.605 27.0513 73.356 26.4473L69.3607 16.7144L76.0288 7.08865L67.138 14.308L58.1873 11.0773Z" fill="white"/>
<g clip-path="url(#clip0_614_1084)">
<path d="M124.055 9.4726C123.456 9.4726 122.871 9.65019 122.373 9.98292C121.875 10.3157 121.487 10.7886 121.258 11.3419C121.028 11.8952 120.968 12.504 121.085 13.0914C121.202 13.6788 121.491 14.2184 121.914 14.6419C122.338 15.0653 122.877 15.3537 123.464 15.4706C124.052 15.5874 124.661 15.5275 125.214 15.2983C125.767 15.0691 126.24 14.681 126.573 14.183C126.906 13.685 127.083 13.0996 127.083 12.5007C127.083 12.103 127.005 11.7093 126.853 11.3419C126.701 10.9745 126.478 10.6407 126.196 10.3595C125.915 10.0783 125.581 9.85527 125.214 9.7031C124.847 9.55092 124.453 9.4726 124.055 9.4726ZM136.18 6.48115C136.173 5.53824 136 4.60395 135.667 3.72169C135.422 3.0761 135.043 2.48982 134.554 2.00153C134.066 1.51324 133.48 1.13405 132.834 0.88897C131.952 0.556203 131.018 0.382573 130.075 0.37615C128.5 0.29068 128.036 0.29068 124.055 0.29068C120.075 0.29068 119.611 0.29068 118.036 0.37615C117.093 0.382573 116.158 0.556203 115.276 0.88897C114.631 1.13405 114.044 1.51324 113.556 2.00153C113.068 2.48982 112.689 3.0761 112.444 3.72169C112.111 4.60395 111.937 5.53824 111.931 6.48115C111.845 8.05624 111.845 8.52022 111.845 12.5007C111.845 16.4811 111.845 16.9451 111.931 18.5202C111.944 19.4664 112.117 20.4036 112.444 21.2919C112.687 21.9345 113.066 22.5174 113.555 23.0013C114.041 23.4925 114.628 23.8717 115.276 24.1124C116.158 24.4452 117.093 24.6188 118.036 24.6252C119.611 24.7107 120.075 24.7107 124.055 24.7107C128.036 24.7107 128.5 24.7107 130.075 24.6252C131.018 24.6188 131.952 24.4452 132.834 24.1124C133.482 23.8717 134.07 23.4925 134.556 23.0013C135.044 22.5174 135.423 21.9345 135.667 21.2919C135.999 20.4053 136.173 19.4671 136.18 18.5202C136.265 16.9451 136.265 16.4811 136.265 12.5007C136.265 8.52022 136.265 8.05624 136.18 6.48115ZM133.078 16.2492C133.039 17.0026 132.878 17.7448 132.602 18.447C132.365 19.0326 132.013 19.5647 131.566 20.0115C131.119 20.4583 130.587 20.8106 130.001 21.0477C129.293 21.3085 128.546 21.4528 127.791 21.475H120.319C119.564 21.4528 118.818 21.3085 118.109 21.0477C117.503 20.8227 116.957 20.4637 116.509 19.9976C116.067 19.5596 115.725 19.0304 115.508 18.447C115.246 17.7389 115.106 16.9917 115.093 16.2369V8.76442C115.106 8.00963 115.246 7.26245 115.508 6.55441C115.733 5.94892 116.092 5.40212 116.558 4.9549C116.998 4.51488 117.527 4.17357 118.109 3.95368C118.818 3.69288 119.564 3.54856 120.319 3.52633H127.791C128.546 3.54856 129.293 3.69288 130.001 3.95368C130.607 4.17869 131.154 4.53765 131.601 5.00374C132.043 5.44177 132.385 5.97093 132.602 6.55441C132.863 7.26319 133.007 8.00951 133.03 8.76442V12.5007C133.03 15.0159 133.115 15.2724 133.078 16.2369V16.2492ZM131.125 7.16491C130.979 6.77051 130.75 6.41234 130.453 6.11511C130.156 5.81788 129.798 5.58868 129.403 5.4433C128.862 5.25558 128.291 5.16466 127.718 5.17468H120.392C119.816 5.18031 119.246 5.28779 118.707 5.49214C118.319 5.63091 117.964 5.85076 117.668 6.13707C117.371 6.42338 117.138 6.7696 116.986 7.1527C116.808 7.69649 116.722 8.26576 116.729 8.83768V16.1637C116.741 16.739 116.849 17.3084 117.047 17.8487C117.192 18.2431 117.421 18.6012 117.718 18.8985C118.016 19.1957 118.374 19.4249 118.768 19.5703C119.289 19.7619 119.837 19.869 120.392 19.8877H127.718C128.294 19.8821 128.865 19.7746 129.403 19.5703C129.798 19.4249 130.156 19.1957 130.453 18.8985C130.75 18.6012 130.979 18.2431 131.125 17.8487C131.329 17.3101 131.437 16.7397 131.442 16.1637V8.83768C131.443 8.26112 131.335 7.6896 131.125 7.1527V7.16491ZM124.055 17.1649C123.443 17.1649 122.837 17.0442 122.272 16.8096C121.707 16.5751 121.194 16.2313 120.761 15.798C120.329 15.3648 119.987 14.8505 119.754 14.2847C119.521 13.7189 119.402 13.1126 119.403 12.5007C119.403 11.5777 119.677 10.6754 120.19 9.90811C120.703 9.14082 121.432 8.54301 122.285 8.19035C123.138 7.83768 124.077 7.74603 124.982 7.927C125.887 8.10796 126.718 8.5534 127.37 9.20692C128.022 9.86045 128.465 10.6927 128.644 11.5982C128.822 12.5038 128.728 13.442 128.373 14.2941C128.018 15.1461 127.418 15.8737 126.65 16.3848C125.881 16.8958 124.978 17.1673 124.055 17.1649ZM128.939 8.75221C128.669 8.72364 128.42 8.59619 128.238 8.39442C128.056 8.19265 127.956 7.93083 127.956 7.65942C127.956 7.388 128.056 7.12618 128.238 6.92441C128.42 6.72264 128.669 6.59519 128.939 6.56662C129.209 6.59519 129.459 6.72264 129.64 6.92441C129.822 7.12618 129.922 7.388 129.922 7.65942C129.922 7.93083 129.822 8.19265 129.64 8.39442C129.459 8.59619 129.209 8.72364 128.939 8.75221Z" fill="white"/>
</g>
<defs>
<clipPath id="clip0_614_1084">
<rect width="24.42" height="24.42" fill="white" transform="translate(111.846 0.289993)"/>
</clipPath>
</defs>
</svg>
