<svg width="67" height="67" viewBox="0 0 67 67" fill="none" xmlns="http://www.w3.org/2000/svg">
<path d="M44.2034 42.0669C41.4406 44.6961 37.8456 46.1007 34.2123 46.2808C33.9851 46.2808 33.7202 46.3167 33.4933 46.3167C33.2661 46.3167 33.0012 46.3167 32.7743 46.2808C28.8761 46.1727 25.0162 45.1644 21.5342 43.2914C19.6797 42.2831 17.9389 41.0585 16.3872 39.5458C14.003 37.2765 12.2245 34.6834 11.0513 31.9103C8.28861 25.4276 8.78043 18.0441 12.4517 11.8855C5.10972 15.8112 0.189453 23.3025 0.189453 31.8744C0.189453 40.4462 5.1092 47.9375 12.4511 51.8991C15.9708 53.808 20.058 54.9246 24.4102 54.9246C27.6271 54.9246 30.6924 54.3124 33.4928 53.2318C38.5643 51.2869 42.803 47.7574 45.4519 43.2555C47.3443 40.086 48.4795 36.4483 48.5931 32.5586C48.4418 36.0522 46.9658 39.4377 44.2031 42.0669" fill="#4FC3F7"/>
<path d="M50.5988 6.95066C41.1375 -2.05289 25.8108 -2.05289 16.3492 6.95066C14.7597 8.46341 13.4729 10.1204 12.4134 11.8491C8.74242 18.008 8.28829 25.3912 11.051 31.8739C12.2241 34.6473 14.0027 37.2765 16.3869 39.5094C17.9765 41.0221 19.7174 42.2467 21.5339 43.255C25.0156 45.128 28.8758 46.1363 32.774 46.2444C29.141 46.0643 25.5833 44.6597 22.7829 42.0305C19.831 39.2573 18.355 35.5478 18.355 31.8741V31.838C18.355 27.8456 19.4508 23.9224 21.5339 20.4568C22.5937 18.6923 23.8804 17.0355 25.4697 15.5589C27.8542 13.2896 30.579 11.597 33.493 10.4806C40.3051 7.85138 48.1009 8.31968 54.5726 11.8132C53.513 10.0845 52.1881 8.42729 50.5988 6.95066Z" fill="#4285F4"/>
<path opacity="0.2" d="M33.4921 10.157C30.5781 11.2735 27.8154 12.9661 25.4688 15.2351C23.8795 16.7478 22.5928 18.4046 21.533 20.1333C19.4136 23.6268 18.3541 27.5526 18.3541 31.4783V31.6584C18.3918 27.8049 19.4516 23.915 21.533 20.4576C22.5928 18.6928 23.8795 17.036 25.4688 15.5594C27.8533 13.2901 30.5781 11.5975 33.4921 10.4811C40.3043 7.85189 48.1001 8.32019 54.5717 11.8137L54.2312 11.2732C47.8352 7.96 40.1907 7.56369 33.4921 10.157ZM16.386 39.1497C14.0018 36.8807 12.2233 34.2876 11.0501 31.5144C9.87673 28.7413 9.27131 25.8239 9.27131 22.9067C9.23336 25.9681 9.80108 28.9933 11.0501 31.8746C12.2233 34.6478 14.0018 37.277 16.386 39.5099C17.9756 41.0226 19.7165 42.2472 21.533 43.2555C25.0147 45.1285 28.8749 46.1368 32.7731 46.2449C31.1835 46.1729 29.5939 45.8489 28.08 45.3083C25.8096 44.8044 23.6146 44.012 21.533 42.8956C19.6785 41.9231 17.9377 40.6624 16.386 39.1497Z" fill="#1A237E"/>
<path d="M59.6815 15.5952C58.0922 14.0827 56.3514 12.8581 54.5346 11.8495C48.0632 8.35598 40.2669 7.88793 33.455 10.5169C30.541 11.6336 27.7783 13.3262 25.432 15.5952C23.8425 17.1082 22.5557 18.7647 21.4962 20.4934C19.4375 23.9536 18.3553 27.8621 18.355 31.8384C18.355 28.1648 19.831 24.4911 22.7829 21.6821C25.5454 19.0529 29.1407 17.6482 32.7737 17.4681C33.2658 17.432 33.7579 17.432 34.212 17.4681C38.1099 17.5762 41.9701 18.5846 45.4518 20.4573C47.3063 21.4661 49.0471 22.6904 50.5988 24.2032C52.9832 26.4722 54.7618 29.0653 55.9349 31.8384C58.6977 38.3214 58.2056 45.7404 54.5346 51.8632C56.3891 50.8548 58.1299 49.6303 59.6815 48.1178C69.1428 39.1857 69.1428 24.5634 59.6815 15.5952Z" fill="#FFC107"/>
<path opacity="0.2" d="M18.355 32.2345C18.355 35.9082 19.831 39.6177 22.7829 42.427C25.5454 45.0562 29.1407 46.4609 32.7737 46.641C33.0009 46.641 33.2658 46.6768 33.493 46.6768C33.7199 46.6768 33.9851 46.6768 34.212 46.641C37.845 46.4609 41.4026 45.0562 44.203 42.427C46.7386 40.014 48.1768 36.9527 48.5553 33.8193C48.593 33.4232 48.631 32.9908 48.631 32.5947C48.4417 36.0522 46.9658 39.4376 44.203 42.0668C41.4403 44.696 37.8453 46.1007 34.212 46.2808C33.9848 46.2808 33.7199 46.3166 33.493 46.3166C33.2658 46.3166 33.0009 46.3166 32.774 46.2808C29.1409 46.1007 25.5833 44.696 22.7829 42.0668C19.8686 39.2936 18.4306 35.692 18.355 32.0544V32.2345Z" fill="white"/>
<path opacity="0.2" d="M55.9729 31.514C54.7995 28.7408 53.0209 26.1116 50.6367 23.8785C49.0471 22.366 47.3063 21.1415 45.4898 20.1329C42.008 18.2602 38.1478 17.2516 34.2499 17.1437C33.7713 17.1077 33.2903 17.1077 32.8117 17.1437C29.1786 17.3238 25.6213 18.6924 22.8209 21.3574C19.831 24.1308 18.355 27.8043 18.355 31.4782V31.6941C18.3927 28.0566 19.8686 24.4549 22.7829 21.6817C25.5454 19.0525 29.1407 17.6479 32.7737 17.4678C33.2658 17.4317 33.7579 17.4317 34.212 17.4678C38.1099 17.5759 41.9701 18.5842 45.4518 20.4569C47.3063 21.4658 49.0471 22.6901 50.5988 24.2028C52.9832 26.4718 54.7618 29.0649 55.9349 31.8381C57.1081 34.6113 57.6758 37.5287 57.6758 40.4461C57.7517 37.4206 57.1837 34.3953 55.9729 31.514ZM59.6816 47.7931C58.2056 49.198 56.5406 50.3862 54.7995 51.3589C54.6862 51.5388 54.6105 51.7189 54.4969 51.899C56.3514 50.8906 58.0922 49.6661 59.6439 48.1533C64.4123 43.6153 66.7966 37.6365 66.7206 31.6582C66.7586 37.5287 64.3744 43.3632 59.6816 47.7931Z" fill="#BF360C"/>
<path opacity="0.2" d="M50.599 24.5991C52.9832 26.8684 54.7617 29.4615 55.9349 32.2346C57.1083 35.0078 57.6757 37.9252 57.6757 40.8424C57.7137 37.781 57.146 34.7557 55.9351 31.8744C54.7617 29.1013 52.9832 26.4721 50.599 24.2389C49.0094 22.7264 47.2685 21.5019 45.452 20.4933C41.9703 18.6206 38.1101 17.612 34.2119 17.5042C35.8015 17.5761 37.3911 17.9002 38.905 18.4405C41.1754 18.9447 43.3704 19.737 45.452 20.8535C47.3065 21.826 49.0473 23.0866 50.599 24.5991Z" fill="#1A237E"/>
<path opacity="0.2" d="M59.6816 15.5947C58.0923 14.0822 56.3514 12.8576 54.5347 11.849C53.4751 10.0845 52.1884 8.42748 50.5988 6.95084C41.1375 -2.05295 25.8106 -2.05295 16.3493 6.95084C14.7597 8.4636 13.473 10.1203 12.4134 11.849C5.1092 15.8109 0.189453 23.3022 0.189453 31.8741V32.0544C0.265359 23.6624 5.03356 16.3514 12.1106 12.3896C10.2182 15.775 9.27225 19.5207 9.27225 23.2663C9.34816 19.4487 10.3697 15.6311 12.4132 12.2095C13.4732 10.4446 14.7597 8.78792 16.3493 7.31128C25.8106 -1.69276 41.1375 -1.69276 50.5988 7.31128C51.9992 8.64394 53.2102 10.1206 54.1941 11.7053C47.7984 8.35574 40.1537 7.95968 33.4551 10.5528C30.5411 11.6692 27.7784 13.3621 25.4321 15.6311C23.8425 17.1438 22.5558 18.8005 21.4962 20.5293C19.4146 23.9867 18.355 27.9124 18.355 31.8382C18.355 31.3699 18.3927 30.8657 18.431 30.3977C18.6956 27.0842 19.7554 23.8066 21.5339 20.8175C22.5937 19.0526 23.8805 17.3959 25.4698 15.9193C27.8543 13.65 30.579 11.9574 33.493 10.841C40.3052 8.21176 48.101 8.68006 54.5726 12.1736C56.4271 13.182 58.1679 14.4065 59.7196 15.9193C64.4124 20.385 66.7587 26.1837 66.7974 32.0544C66.8343 26.0756 64.488 20.1327 59.6816 15.5947Z" fill="white"/>
<g filter="url(#filter0_d_614_1032)">
<path d="M55.9733 31.8744C54.8002 29.1013 53.0217 26.4721 50.6374 24.2389C49.0479 22.7264 47.307 21.5019 45.4905 20.4933C42.0088 18.6206 38.1486 17.612 34.2504 17.5042C37.8834 17.684 41.441 19.0528 44.2414 21.7178C46.9662 24.3109 48.4424 27.7325 48.6314 31.1541C48.6314 31.4061 48.6694 31.6224 48.6694 31.8744C48.6694 32.1265 48.6694 32.3427 48.6314 32.5948C48.5181 36.4844 47.3826 40.122 45.4905 43.2915C42.8034 47.7575 38.6027 51.323 33.5314 53.2677C30.7307 54.3483 27.6654 54.9606 24.4488 54.9606C20.0966 54.9606 16.0092 53.8441 12.4897 51.9353C13.5493 53.7002 14.836 55.3569 16.4256 56.8335C25.8866 65.8376 41.2138 65.8376 50.6751 56.8335C52.2647 55.3208 53.5514 53.664 54.611 51.9353C58.244 45.7767 58.6984 38.3571 55.9733 31.8744Z" fill="black"/>
</g>
<path d="M55.9726 31.8744C54.7995 29.1013 53.0207 26.4721 50.6364 24.2389C49.0469 22.7264 47.306 21.5019 45.4895 20.4933C42.0078 18.6206 38.1476 17.612 34.2497 17.5042C37.8827 17.684 41.4401 19.0528 44.2405 21.7178C46.9655 24.3109 48.4415 27.7325 48.6307 31.1541C48.6307 31.4061 48.6684 31.6224 48.6684 31.8744C48.6684 32.1265 48.6684 32.3427 48.6307 32.5948C48.5171 36.4845 47.3817 40.122 45.4898 43.2915C42.8024 47.7575 38.6017 51.323 33.5307 53.2677C30.73 54.3483 27.6644 54.9606 24.4479 54.9606C20.0956 54.9606 16.0084 53.8441 12.4888 51.9353C13.5483 53.7002 14.835 55.3569 16.4246 56.8335C25.8859 65.8376 41.2131 65.8376 50.6744 56.8335C52.2637 55.3208 53.5504 53.664 54.6103 51.9353C58.2433 45.7767 58.6974 38.3571 55.9726 31.8744Z" fill="#3367D6"/>
<path opacity="0.2" d="M33.4927 53.5919C38.564 51.647 42.7647 48.1176 45.4518 43.6157C47.344 40.4462 48.4791 36.8084 48.5927 32.9188C48.5927 32.6667 48.6307 32.4505 48.6307 32.1984V32.0183V32.5588C48.5171 36.4485 47.3817 40.086 45.4898 43.2555C42.8024 47.7213 38.6017 51.2871 33.5307 53.2317C30.73 54.3123 27.6644 54.9246 24.4479 54.9246C20.0956 54.9246 16.0084 53.8082 12.4888 51.8993L12.8293 52.4394C16.4001 54.3088 20.4101 55.2877 24.4856 55.2848C27.6265 55.2848 30.692 54.6725 33.4927 53.5919Z" fill="#1A237E"/>
<path opacity="0.2" d="M12.754 52.079C16.3248 53.9485 20.3348 54.9273 24.4102 54.9244C27.6271 54.9244 30.6924 54.3122 33.4928 53.2316C38.5643 51.2867 42.803 47.7572 45.4519 43.2553C47.3443 40.0859 48.4795 36.4481 48.5931 32.5585C48.5931 32.8467 48.5554 33.1346 48.5174 33.4228C48.2146 36.8444 47.155 40.0497 45.4519 42.8952C42.7651 47.397 38.5643 50.9267 33.4928 52.8714C30.6924 53.952 27.6271 54.5643 24.4102 54.5643C20.058 54.5643 15.9708 53.4478 12.4511 51.539C5.18511 47.6133 0.265097 40.194 0.189453 31.6941V31.8742C0.189453 40.446 5.1092 47.9373 12.4511 51.8989" fill="#1A237E"/>
<path d="M50.8262 24.4546C53.0968 26.6516 54.7997 29.2086 55.9354 31.8739C58.6979 38.3568 58.2058 45.7759 54.5351 51.8986C56.3893 50.8903 58.1302 49.6658 59.6818 48.153C62.5958 45.3798 64.6018 42.1025 65.6993 38.6089L50.8262 24.4546Z" fill="url(#paint0_linear_614_1032)"/>
<path opacity="0.2" d="M54.5348 51.5393C53.4753 53.3041 52.1885 54.9608 50.5989 56.4375C41.1377 65.4415 25.8107 65.4415 16.3494 56.4375C14.9714 55.1275 13.7643 53.6643 12.7541 52.0795C12.6405 52.0076 12.5269 51.9717 12.4136 51.8994C13.4731 53.6643 14.7599 55.321 16.3494 56.7977C25.8107 65.8017 41.1377 65.8017 50.5989 56.7977C52.1885 55.2851 53.4753 53.6284 54.5348 51.8994C56.6541 48.3698 57.7139 44.4082 57.676 40.4824C57.6383 44.3001 56.6162 48.1179 54.5348 51.5393Z" fill="#1A237E"/>
<path d="M59.6816 15.5947C58.0923 14.0822 56.3512 12.8576 54.5347 11.849C53.4751 10.0842 52.1884 8.42748 50.5988 6.95084C41.1375 -2.05295 25.8106 -2.05295 16.3493 6.95084C14.7597 8.4636 13.473 10.1203 12.4134 11.849C5.1092 15.8109 0.189453 23.3022 0.189453 31.8741C0.189453 40.4462 5.1092 47.9374 12.4511 51.8991C13.5109 53.6639 14.7977 55.3206 16.387 56.7973C25.8483 65.8013 41.1755 65.8013 50.6368 56.7973C52.2261 55.2848 53.5128 53.6278 54.5726 51.8991C56.4271 50.8907 58.1679 49.6662 59.7196 48.1534C69.1429 39.1855 69.1429 24.5629 59.6816 15.5947ZM48.6308 31.8743C48.6308 39.8339 41.8568 46.2807 33.493 46.2807C25.1293 46.2807 18.355 39.8339 18.355 31.8743C18.355 23.9147 25.1293 17.4679 33.493 17.4679C41.8568 17.4679 48.6308 23.9147 48.6308 31.8743Z" fill="url(#paint1_radial_614_1032)" fill-opacity="0.1"/>
<defs>
<filter id="filter0_d_614_1032" x="12.331" y="17.1866" width="47.1409" height="47.988" filterUnits="userSpaceOnUse" color-interpolation-filters="sRGB">
<feFlood flood-opacity="0" result="BackgroundImageFix"/>
<feColorMatrix in="SourceAlpha" type="matrix" values="0 0 0 0 0 0 0 0 0 0 0 0 0 0 0 0 0 0 127 0" result="hardAlpha"/>
<feOffset dx="0.793969" dy="0.635175"/>
<feGaussianBlur stdDeviation="0.476381"/>
<feColorMatrix type="matrix" values="0 0 0 0 0.768627 0 0 0 0 0.489469 0 0 0 0 0.0235294 0 0 0 0.2 0"/>
<feBlend mode="normal" in2="BackgroundImageFix" result="effect1_dropShadow_614_1032"/>
<feBlend mode="normal" in="SourceGraphic" in2="effect1_dropShadow_614_1032" result="shape"/>
</filter>
<linearGradient id="paint0_linear_614_1032" x1="72.5855" y1="1239.1" x2="1408.73" y2="1612.56" gradientUnits="userSpaceOnUse">
<stop stop-color="#BF360C" stop-opacity="0.2"/>
<stop offset="1" stop-color="#BF360C" stop-opacity="0"/>
</linearGradient>
<radialGradient id="paint1_radial_614_1032" cx="0" cy="0" r="1" gradientUnits="userSpaceOnUse" gradientTransform="translate(857.739 850.766) scale(6610.89 6291.39)">
<stop stop-color="white"/>
<stop offset="1" stop-color="white" stop-opacity="0"/>
</radialGradient>
</defs>
</svg>
