<svg width="48" height="49" viewBox="0 0 48 49" fill="none" xmlns="http://www.w3.org/2000/svg">
<path d="M25.9994 24.5889C25.9994 25.0369 25.871 25.4747 25.6303 25.8471C25.3895 26.2196 25.0474 26.5099 24.6471 26.6813C24.2468 26.8527 23.8064 26.8975 23.3814 26.8101C22.9565 26.7228 22.5662 26.5071 22.2598 26.1903C21.9534 25.8736 21.7448 25.4701 21.6603 25.0308C21.5757 24.5914 21.6191 24.1361 21.7849 23.7223C21.9507 23.3084 22.2315 22.9547 22.5918 22.7059C22.952 22.457 23.3755 22.3242 23.8088 22.3242C24.3898 22.3242 24.947 22.5628 25.3578 22.9875C25.7686 23.4123 25.9994 23.9883 25.9994 24.5889Z" fill="black"/>
</svg>
