<svg width="22" height="23" viewBox="0 0 22 23" fill="none" xmlns="http://www.w3.org/2000/svg">
<path d="M11.6922 11.8456C11.6922 12.0495 11.6337 12.2488 11.5242 12.4183C11.4146 12.5878 11.2589 12.7199 11.0767 12.7979C10.8946 12.8759 10.6941 12.8963 10.5007 12.8565C10.3073 12.8168 10.1297 12.7186 9.99025 12.5744C9.85082 12.4303 9.75587 12.2466 9.7174 12.0467C9.67893 11.8468 9.69867 11.6395 9.77413 11.4512C9.84959 11.2629 9.97738 11.1019 10.1413 10.9886C10.3053 10.8754 10.498 10.8149 10.6952 10.8149C10.9596 10.8149 11.2132 10.9235 11.4002 11.1168C11.5872 11.3101 11.6922 11.5723 11.6922 11.8456Z" fill="black"/>
</svg>
