<svg width="48" height="50" viewBox="0 0 48 50" fill="none" xmlns="http://www.w3.org/2000/svg">
<path d="M26.5229 24.9447C26.5229 25.3926 26.3944 25.8304 26.1537 26.2029C25.913 26.5753 25.5708 26.8656 25.1706 27.037C24.7703 27.2084 24.3298 27.2532 23.9049 27.1659C23.4799 27.0785 23.0896 26.8628 22.7832 26.546C22.4769 26.2293 22.2682 25.8258 22.1837 25.3865C22.0992 24.9472 22.1426 24.4918 22.3084 24.078C22.4742 23.6642 22.7549 23.3105 23.1152 23.0616C23.4754 22.8128 23.899 22.6799 24.3322 22.6799C24.9132 22.6799 25.4704 22.9185 25.8813 23.3433C26.2921 23.768 26.5229 24.344 26.5229 24.9447Z" fill="black"/>
</svg>
