<svg width="17" height="18" viewBox="0 0 17 18" fill="none" xmlns="http://www.w3.org/2000/svg">
<path d="M9.18172 8.53037C9.18172 8.68867 9.13631 8.84342 9.05124 8.97504C8.96617 9.10667 8.84526 9.20926 8.70379 9.26984C8.56232 9.33042 8.40665 9.34627 8.25647 9.31538C8.10629 9.2845 7.96834 9.20827 7.86006 9.09633C7.75179 8.9844 7.67805 8.84178 7.64818 8.68652C7.6183 8.53126 7.63364 8.37033 7.69223 8.22408C7.75083 8.07782 7.85007 7.95282 7.97738 7.86487C8.1047 7.77692 8.25439 7.72998 8.40751 7.72998C8.61284 7.72998 8.80977 7.81431 8.95496 7.96441C9.10015 8.11451 9.18172 8.31809 9.18172 8.53037Z" fill="black"/>
</svg>
