<svg width="67" height="67" viewBox="0 0 67 67" fill="none" xmlns="http://www.w3.org/2000/svg">
<g clip-path="url(#clip0_614_1009)">
<path d="M51.146 0H15.6569C7.00984 0 0 7.00984 0 15.6569V51.146C0 59.793 7.00984 66.8029 15.6569 66.8029H51.146C59.793 66.8029 66.8029 59.793 66.8029 51.146V15.6569C66.8029 7.00984 59.793 0 51.146 0Z" fill="#F4F2ED"/>
<mask id="mask0_614_1009" style="mask-type:luminance" maskUnits="userSpaceOnUse" x="15" y="7" width="36" height="53">
<path d="M15.918 7.3064H50.7181V59.4962H15.918V7.3064Z" fill="white"/>
</mask>
<g mask="url(#mask0_614_1009)">
<path d="M24.6199 59.4956C29.4213 59.4956 33.3181 55.5988 33.3181 50.7973V42.0989H24.6199C19.8184 42.0989 15.9214 45.9959 15.9214 50.7973C15.9214 55.5988 19.8184 59.4956 24.6199 59.4956Z" fill="#0ACF83"/>
<path d="M15.9214 33.4006C15.9214 28.5991 19.8184 24.7024 24.6199 24.7024H33.3181V42.0988H24.6199C19.8184 42.0988 15.9214 38.2021 15.9214 33.4006Z" fill="#A259FF"/>
<path d="M15.9214 16.0044C15.9214 11.2029 19.8184 7.30615 24.6199 7.30615H33.3181V24.7028H24.6199C19.8184 24.7028 15.9214 20.8058 15.9214 16.0044Z" fill="#F24E1E"/>
<path d="M33.3184 7.30591H42.0166C46.818 7.30591 50.715 11.2027 50.715 16.0041C50.715 20.8056 46.818 24.7026 42.0166 24.7026H33.3184V7.30591Z" fill="#FF7262"/>
<path d="M50.715 33.4006C50.715 38.2021 46.818 42.0988 42.0166 42.0988C37.2151 42.0988 33.3184 38.2021 33.3184 33.4006C33.3184 28.5991 37.2151 24.7024 42.0166 24.7024C46.818 24.7024 50.715 28.5991 50.715 33.4006Z" fill="#1ABCFE"/>
</g>
</g>
<defs>
<clipPath id="clip0_614_1009">
<rect width="66.8029" height="66.8029" fill="white"/>
</clipPath>
</defs>
</svg>
