<svg width="67" height="67" viewBox="0 0 67 67" fill="none" xmlns="http://www.w3.org/2000/svg">
<g clip-path="url(#clip0_614_1021)">
<path d="M51.146 0H15.6569C7.00984 0 0 7.00984 0 15.6569V51.146C0 59.793 7.00984 66.8029 15.6569 66.8029H51.146C59.793 66.8029 66.8029 59.793 66.8029 51.146V15.6569C66.8029 7.00984 59.793 0 51.146 0Z" fill="#330000"/>
<path d="M32.288 39.7511H21.9336L19.8181 46.2923C19.7625 46.5429 19.5399 46.7099 19.2894 46.6819H14.0563C13.7502 46.6819 13.6667 46.5149 13.7502 46.1809L22.713 20.3783C22.7965 20.1001 22.88 19.7938 22.9912 19.4598C23.1026 18.8752 23.1582 18.2631 23.1582 17.6506C23.1305 17.5115 23.2417 17.3722 23.3811 17.3445H30.59C30.8129 17.3445 30.924 17.428 30.952 17.5671L41.1115 46.2368C41.195 46.5429 41.1115 46.6819 40.8333 46.6819H35.0157C34.8211 46.7099 34.6261 46.5708 34.5705 46.3759L32.288 39.7511ZM23.5481 34.1008H30.618C30.4509 33.5163 30.2284 32.8203 29.9778 32.0967C29.7273 31.3452 29.4768 30.5381 29.2263 29.7031C28.9479 28.8401 28.6974 28.0051 28.4189 27.1421C28.1408 26.2794 27.8903 25.472 27.6674 24.6649C27.4448 23.8857 27.2499 23.1618 27.0552 22.4938H26.9994C26.7489 23.6908 26.4428 24.8878 26.0532 26.0845C25.6357 27.4205 25.2181 28.8122 24.7727 30.2041C24.4132 31.5178 24.0047 32.8176 23.5481 34.1008ZM47.3187 22.2154C46.4001 22.2433 45.5095 21.8814 44.8415 21.2413C44.2014 20.5453 43.8674 19.6268 43.895 18.6806C43.8674 17.7341 44.229 16.8435 44.8971 16.2031C45.5651 15.563 46.456 15.229 47.3745 15.229C48.4601 15.229 49.2951 15.563 49.9073 16.2031C50.5242 16.878 50.8537 17.7667 50.8258 18.6806C50.8537 19.6268 50.5197 20.5453 49.8517 21.2413C49.2116 21.9093 48.2651 22.2712 47.3187 22.2154ZM44.2014 46.3759V24.9433C44.2014 24.6649 44.3125 24.5535 44.563 24.5535H50.0743C50.3248 24.5535 50.4362 24.6928 50.4362 24.9433V46.3759C50.4362 46.6819 50.3248 46.8213 50.0743 46.8213H44.6189C44.3405 46.8213 44.2014 46.6543 44.2014 46.3759Z" fill="#FF9A00"/>
</g>
<defs>
<clipPath id="clip0_614_1021">
<rect width="66.8029" height="66.8029" fill="white"/>
</clipPath>
</defs>
</svg>
