<svg width="41" height="41" viewBox="0 0 41 41" fill="none" xmlns="http://www.w3.org/2000/svg">
<path fill-rule="evenodd" clip-rule="evenodd" d="M7.56764 11.1248C7.67719 10.997 7.81086 10.892 7.961 10.8158C8.11115 10.7397 8.27482 10.6939 8.44268 10.681C8.61053 10.6682 8.77927 10.6885 8.93925 10.7409C9.09924 10.7933 9.24733 10.8767 9.37506 10.9864L20.4997 20.5206L31.6244 10.9864C31.8838 10.7782 32.2139 10.679 32.5451 10.7098C32.8763 10.7406 33.1825 10.899 33.399 11.1515C33.6155 11.4039 33.7254 11.7307 33.7054 12.0627C33.6853 12.3947 33.537 12.7059 33.2917 12.9305L21.3334 23.1805C21.1012 23.3794 20.8055 23.4888 20.4997 23.4888C20.1939 23.4888 19.8983 23.3794 19.6661 23.1805L7.70773 12.9305C7.45008 12.7093 7.29079 12.3949 7.26484 12.0563C7.2389 11.7177 7.34842 11.3827 7.56935 11.1248M7.56935 17.9581C7.6789 17.8303 7.81257 17.7253 7.96271 17.6492C8.11286 17.573 8.27653 17.5272 8.44438 17.5144C8.61224 17.5015 8.78098 17.5219 8.94096 17.5743C9.10095 17.6267 9.24904 17.7101 9.37677 17.8197L20.4997 27.3539L31.6244 17.8197C31.752 17.7089 31.9002 17.6244 32.0606 17.5711C32.2209 17.5178 32.3902 17.4968 32.5588 17.5092C32.7273 17.5216 32.8917 17.5672 33.0425 17.6435C33.1934 17.7197 33.3276 17.825 33.4376 17.9533C33.5475 18.0816 33.631 18.2304 33.6832 18.3911C33.7354 18.5519 33.7553 18.7213 33.7418 18.8898C33.7282 19.0582 33.6815 19.2223 33.6042 19.3726C33.527 19.5229 33.4208 19.6564 33.2917 19.7655L21.3334 30.0155C21.1012 30.2145 20.8055 30.3238 20.4997 30.3238C20.1939 30.3238 19.8983 30.2145 19.6661 30.0155L7.70773 19.7655C7.5799 19.656 7.47492 19.5223 7.39879 19.3722C7.32265 19.222 7.27684 19.0583 7.26399 18.8905C7.25114 18.7226 7.2715 18.5539 7.32389 18.3939C7.37629 18.2339 7.4597 18.0858 7.56935 17.9581Z" fill="#4FC3F7"/>
</svg>
