<svg width="1103" height="114" viewBox="0 0 1103 114" fill="none" xmlns="http://www.w3.org/2000/svg">
<g clip-path="url(#clip0_541_473)">
<path d="M186.822 46.4263V62.9441C186.822 66.1156 188.584 67.4561 191.383 67.4561C191.961 67.4777 192.54 67.4193 193.102 67.2825V63.565C192.89 63.5886 192.677 63.5984 192.464 63.5943C191.727 63.5943 191.124 63.2684 191.124 62.3541V46.4263H186.822ZM195.792 46.4263V62.9441C195.792 66.1156 197.555 67.4561 200.355 67.4561C200.937 67.4787 201.519 67.4203 202.084 67.2825V63.565C201.874 63.5885 201.662 63.5983 201.45 63.5943C200.7 63.5943 200.092 63.2684 200.092 62.3541V46.4263H195.792ZM143.548 47.9583V52.0009H148.337V67.3396H152.959V52.0009H157.749V47.9591L143.548 47.9583ZM177.194 51.9349C172.594 51.9349 169.648 55.2694 169.648 59.9298C169.648 64.7678 172.188 67.6411 177.932 67.6411C179.635 67.6551 181.327 67.3528 182.92 66.7496V63.1356C181.446 63.6082 179.786 64.0776 178.083 64.0776C175.796 64.0776 174.204 63.3262 173.815 61.1538C175.011 61.2845 176.213 61.3549 177.417 61.3648C180.689 61.3648 183.449 60.488 183.449 57.3197C183.449 54.2451 180.61 51.9349 177.194 51.9349ZM211.448 51.9414C206.828 51.9414 204.145 55.1301 204.145 59.7904C204.145 64.4206 206.859 67.6949 211.448 67.6949C216.038 67.6949 218.692 64.4606 218.692 59.7904C218.692 55.1203 216.069 51.9414 211.448 51.9414ZM167.627 52.0335C165.579 52.0523 164.39 53.2355 163.63 55.1431V52.2527H159.359V67.3396H163.629V59.4335C163.629 57.0166 165.03 56.2791 168.048 56.5138V52.0449C167.908 52.036 167.768 52.0321 167.627 52.0335ZM177.106 55.2263C178.316 55.2263 179.289 56.0493 179.289 57.1722C179.289 58.617 177.764 59.0693 176.007 59.0693C175.259 59.0653 174.513 59.0053 173.774 58.89C173.829 58.1857 174.032 57.5009 174.368 56.8797C174.637 56.3869 175.033 55.9747 175.514 55.6854C175.995 55.3961 176.545 55.2401 177.106 55.2336V55.2263ZM211.448 55.7657C213.587 55.7657 214.508 57.521 214.508 59.7904C214.508 62.0599 213.611 63.86 211.448 63.86C209.285 63.86 208.334 62.0599 208.334 59.7904C208.334 57.5169 209.309 55.7657 211.448 55.7657Z" fill="#293856"/>
<path d="M116.43 46.4263H133.27C133.539 46.4254 133.805 46.4777 134.053 46.5801C134.302 46.6825 134.527 46.833 134.717 47.023C134.907 47.2129 135.058 47.4386 135.16 47.6869C135.262 47.9352 135.315 48.2014 135.314 48.47V65.3097C135.315 65.5783 135.262 65.8445 135.16 66.0928C135.058 66.3412 134.907 66.5668 134.717 66.7568C134.527 66.9467 134.302 67.0972 134.053 67.1996C133.805 67.302 133.539 67.3543 133.27 67.3534H116.43C116.162 67.3543 115.896 67.302 115.647 67.1996C115.399 67.0972 115.173 66.9467 114.983 66.7568C114.793 66.5668 114.643 66.3412 114.541 66.0928C114.438 65.8445 114.386 65.5783 114.387 65.3097V48.47C114.386 48.2014 114.438 47.9352 114.541 47.6869C114.643 47.4386 114.793 47.2129 114.983 47.023C115.173 46.833 115.399 46.6825 115.647 46.5801C115.896 46.4777 116.162 46.4254 116.43 46.4263Z" fill="url(#paint0_linear_541_473)"/>
<path d="M127.192 49.1465H131.613C132.156 49.1465 132.594 49.5849 132.594 50.1276V57.3214C132.594 57.4504 132.569 57.5782 132.52 57.6974C132.471 57.8166 132.399 57.925 132.307 58.0162C132.216 58.1074 132.108 58.1796 131.989 58.2288C131.87 58.2779 131.742 58.303 131.613 58.3026H127.192C127.063 58.303 126.935 58.2779 126.816 58.2288C126.697 58.1796 126.588 58.1074 126.497 58.0162C126.406 57.925 126.334 57.8166 126.285 57.6974C126.236 57.5782 126.21 57.4504 126.211 57.3214V50.1276C126.211 49.9987 126.236 49.871 126.285 49.7519C126.334 49.6328 126.406 49.5245 126.498 49.4334C126.589 49.3423 126.697 49.2701 126.816 49.221C126.935 49.1719 127.063 49.1469 127.192 49.1473V49.1465ZM118.088 49.1465H122.509C123.052 49.1465 123.49 49.5849 123.49 50.1276V62.553C123.49 62.682 123.465 62.8098 123.416 62.929C123.367 63.0482 123.295 63.1566 123.204 63.2478C123.112 63.3389 123.004 63.4112 122.885 63.4603C122.766 63.5095 122.638 63.5346 122.509 63.5342H118.088C117.959 63.5346 117.831 63.5095 117.712 63.4603C117.593 63.4112 117.485 63.3389 117.393 63.2478C117.302 63.1566 117.23 63.0482 117.181 62.929C117.132 62.8098 117.107 62.682 117.107 62.553V50.1276C117.107 49.5841 117.545 49.1465 118.088 49.1465Z" fill="white"/>
</g>
<g clip-path="url(#clip1_541_473)">
<path d="M323.638 0.391602H263.427C248.756 0.391602 236.863 12.2845 236.863 26.9552V87.166C236.863 101.837 248.756 113.73 263.427 113.73H323.638C338.308 113.73 350.201 101.837 350.201 87.166V26.9552C350.201 12.2845 338.308 0.391602 323.638 0.391602Z" fill="#F4F2ED"/>
<mask id="mask0_541_473" style="mask-type:luminance" maskUnits="userSpaceOnUse" x="263" y="12" width="60" height="90">
<path d="M263.87 12.7878H322.912V101.333H263.87V12.7878Z" fill="white"/>
</mask>
<g mask="url(#mask0_541_473)">
<path d="M278.633 101.333C286.779 101.333 293.391 94.7219 293.391 86.5757V71.8179H278.633C270.487 71.8179 263.875 78.4296 263.875 86.5757C263.875 94.7219 270.487 101.333 278.633 101.333Z" fill="#0ACF83"/>
<path d="M263.875 57.0604C263.875 48.9142 270.487 42.303 278.633 42.303H293.391V71.8178H278.633C270.487 71.8178 263.875 65.2065 263.875 57.0604Z" fill="#A259FF"/>
<path d="M263.875 27.5452C263.875 19.3991 270.487 12.7878 278.633 12.7878H293.391V42.3031H278.633C270.487 42.3031 263.875 35.6914 263.875 27.5452Z" fill="#F24E1E"/>
<path d="M293.391 12.7878H308.148C316.294 12.7878 322.906 19.3991 322.906 27.5452C322.906 35.6914 316.294 42.3031 308.148 42.3031H293.391V12.7878Z" fill="#FF7262"/>
<path d="M322.906 57.0604C322.906 65.2065 316.294 71.8178 308.148 71.8178C300.002 71.8178 293.391 65.2065 293.391 57.0604C293.391 48.9142 300.002 42.303 308.148 42.303C316.294 42.303 322.906 48.9142 322.906 57.0604Z" fill="#1ABCFE"/>
</g>
</g>
<g clip-path="url(#clip2_541_473)">
<path d="M455.146 0.391602H394.935C380.265 0.391602 368.372 12.2845 368.372 26.9552V87.166C368.372 101.837 380.265 113.73 394.935 113.73H455.146C469.817 113.73 481.71 101.837 481.71 87.166V26.9552C481.71 12.2845 469.817 0.391602 455.146 0.391602Z" fill="#330000"/>
<path d="M423.151 67.8336H405.584L401.995 78.9314C401.901 79.3564 401.523 79.6397 401.098 79.5924H392.219C391.7 79.5924 391.559 79.309 391.7 78.7423L406.906 34.9656C407.048 34.4936 407.19 33.9739 407.378 33.4072C407.567 32.4155 407.662 31.3768 407.662 30.3377C407.615 30.1018 407.803 29.8654 408.04 29.8184H420.271C420.649 29.8184 420.837 29.9601 420.885 30.1961L438.121 78.8371C438.263 79.3564 438.121 79.5924 437.649 79.5924H427.779C427.449 79.6397 427.118 79.4038 427.024 79.0731L423.151 67.8336ZM408.323 58.2472H420.318C420.035 57.2555 419.657 56.0748 419.232 54.8471C418.807 53.572 418.382 52.2027 417.957 50.7859C417.485 49.3219 417.06 47.9051 416.587 46.441C416.115 44.9774 415.69 43.6076 415.312 42.2382C414.934 40.9162 414.604 39.6881 414.273 38.5547H414.179C413.754 40.5855 413.234 42.6163 412.573 44.6467C411.865 46.9134 411.157 49.2745 410.401 51.636C409.791 53.8649 409.098 56.0701 408.323 58.2472ZM448.652 38.0824C447.094 38.1297 445.583 37.5157 444.45 36.4297C443.364 35.2489 442.797 33.6905 442.844 32.0852C442.797 30.4794 443.411 28.9684 444.544 27.8819C445.677 26.7959 447.189 26.2292 448.747 26.2292C450.589 26.2292 452.006 26.7959 453.044 27.8819C454.091 29.0269 454.65 30.5347 454.603 32.0852C454.65 33.6905 454.083 35.2489 452.95 36.4297C451.864 37.563 450.258 38.1771 448.652 38.0824ZM443.364 79.0731V42.7106C443.364 42.2382 443.552 42.0492 443.977 42.0492H453.328C453.753 42.0492 453.942 42.2856 453.942 42.7106V79.0731C453.942 79.5924 453.753 79.8288 453.328 79.8288H444.072C443.6 79.8288 443.364 79.5454 443.364 79.0731Z" fill="#FF9A00"/>
</g>
<g clip-path="url(#clip3_541_473)">
<path d="M575.467 4.90771H560.29L573.763 25.8036L545.27 4.90771H530.081L543.562 32.288L515.065 4.90771H499.88L513.135 40.2456L499.88 109.213H515.065L543.558 35.265L530.081 109.213H545.266L573.763 28.785L560.286 109.213H575.467L604.186 20.8665L575.467 4.90771Z" fill="black"/>
</g>
<g clip-path="url(#clip4_541_473)">
<path d="M646.23 71.7053C646.23 78.126 640.993 83.3702 634.572 83.3702C628.15 83.3702 622.908 78.126 622.908 71.7053C622.908 65.2846 628.152 60.0403 634.573 60.0403H646.231L646.23 71.7053ZM652.107 71.7053C652.107 65.2846 657.351 60.0403 663.771 60.0403C670.192 60.0403 675.436 65.2837 675.436 71.7053V100.905C675.436 107.326 670.193 112.57 663.771 112.57C657.351 112.57 652.107 107.326 652.107 100.905V71.7053Z" fill="#DE1C59"/>
<path d="M663.771 24.8733C657.351 24.8733 652.107 19.6369 652.107 13.2154C652.107 6.79381 657.351 1.55127 663.771 1.55127C670.192 1.55127 675.436 6.79556 675.436 13.2162V24.8742L663.771 24.8733ZM663.771 30.7501C670.192 30.7501 675.436 35.9944 675.436 42.4151C675.436 48.8357 670.193 54.08 663.771 54.08H634.572C628.151 54.08 622.908 48.8366 622.908 42.4151C622.908 35.9944 628.152 30.7501 634.573 30.7501H663.771Z" fill="#35C5F0"/>
<path d="M710.603 42.4151C710.603 35.9944 715.839 30.7501 722.261 30.7501C728.682 30.7501 733.926 35.9944 733.926 42.4151C733.926 48.8357 728.681 54.08 722.261 54.08H710.603V42.4151ZM704.726 42.4151C704.726 48.8357 699.482 54.08 693.061 54.08C686.64 54.08 681.396 48.8366 681.396 42.4151V13.2154C681.396 6.79469 686.639 1.55127 693.061 1.55127C699.482 1.55127 704.726 6.79556 704.726 13.2162V42.4151Z" fill="#2EB57D"/>
<path d="M693.061 89.247C699.482 89.247 704.726 94.4834 704.726 100.905C704.726 107.327 699.482 112.57 693.061 112.57C686.64 112.57 681.396 107.326 681.396 100.905V89.247H693.061ZM693.061 83.3702C686.64 83.3702 681.396 78.126 681.396 71.7053C681.396 65.2846 686.639 60.0403 693.061 60.0403H722.261C728.681 60.0403 733.926 65.2837 733.926 71.7053C733.926 78.126 728.681 83.3702 722.261 83.3702H693.061Z" fill="#EBB02E"/>
</g>
<g clip-path="url(#clip5_541_473)">
<path d="M827.643 71.5893C822.956 76.05 816.857 78.4331 810.692 78.7387C810.307 78.7387 809.858 78.7995 809.473 78.7995C809.087 78.7995 808.638 78.7995 808.253 78.7387C801.639 78.5553 795.09 76.8445 789.183 73.6669C786.036 71.9561 783.083 69.8786 780.45 67.312C776.405 63.462 773.388 59.0626 771.398 54.3576C766.71 43.359 767.545 30.8323 773.773 20.3835C761.317 27.044 752.969 39.7537 752.969 54.2967C752.969 68.8398 761.316 81.5495 773.772 88.2708C779.744 91.5093 786.678 93.4039 794.062 93.4039C799.52 93.4039 804.721 92.3651 809.472 90.5318C818.076 87.232 825.268 81.2439 829.762 73.606C832.972 68.2287 834.898 62.0568 835.091 55.4577C834.834 61.3848 832.33 67.1286 827.643 71.5893" fill="#4FC3F7"/>
<path d="M838.494 12.0115C822.442 -3.26393 796.439 -3.26393 780.386 12.0115C777.689 14.578 775.506 17.3893 773.708 20.3222C767.48 30.7714 766.71 43.2977 771.397 54.2963C773.387 59.0017 776.405 63.4624 780.45 67.2507C783.147 69.8173 786.1 71.8948 789.182 73.6056C795.089 76.7832 801.639 78.494 808.252 78.6774C802.089 78.3718 796.053 75.9887 791.301 71.528C786.293 66.823 783.789 60.5294 783.789 54.2967V54.2354C783.789 47.4618 785.648 40.8057 789.182 34.9261C790.98 31.9323 793.163 29.1215 795.86 26.6162C799.905 22.7662 804.528 19.8946 809.472 18.0004C821.03 13.5397 834.256 14.3342 845.236 20.2614C843.438 17.3284 841.19 14.5168 838.494 12.0115Z" fill="#4285F4"/>
<path opacity="0.2" d="M809.471 17.4507C804.527 19.3449 799.84 22.2166 795.859 26.0662C793.162 28.6327 790.979 31.4435 789.181 34.3765C785.586 40.3036 783.788 46.9641 783.788 53.6245V53.93C783.852 47.3922 785.65 40.7926 789.181 34.9267C790.979 31.9325 793.162 29.1217 795.859 26.6164C799.904 22.7664 804.527 19.8947 809.471 18.0005C821.029 13.5398 834.255 14.3344 845.235 20.2615L844.657 19.3445C833.806 13.7233 820.836 13.0509 809.471 17.4507ZM780.449 66.6398C776.404 62.7902 773.386 58.3907 771.396 53.6858C769.405 48.9808 768.378 44.0311 768.378 39.0819C768.314 44.2758 769.277 49.4085 771.396 54.2969C773.386 59.0018 776.404 63.4625 780.449 67.2509C783.146 69.8174 786.099 71.895 789.181 73.6057C795.088 76.7834 801.638 78.4941 808.251 78.6775C805.554 78.5554 802.857 78.0056 800.289 77.0885C796.437 76.2336 792.713 74.8892 789.181 72.9951C786.035 71.3452 783.081 69.2063 780.449 66.6398Z" fill="#1A237E"/>
<path d="M853.904 26.677C851.207 24.1109 848.254 22.0333 845.172 20.3221C834.192 14.395 820.965 13.6009 809.408 18.0612C804.464 19.9557 799.777 22.8274 795.796 26.677C793.099 29.244 790.916 32.0544 789.118 34.9873C785.626 40.8579 783.79 47.4891 783.789 54.2353C783.789 48.0026 786.293 41.7699 791.302 37.004C795.988 32.5433 802.088 30.1602 808.252 29.8547C809.087 29.7934 809.922 29.7934 810.692 29.8547C817.305 30.0381 823.855 31.7488 829.762 34.926C832.908 36.6376 835.861 38.7148 838.494 41.2813C842.539 45.1309 845.557 49.5304 847.547 54.2353C852.235 65.2343 851.4 77.8215 845.172 88.2094C848.318 86.4986 851.271 84.4211 853.904 81.8549C869.956 66.7008 869.956 41.8924 853.904 26.677Z" fill="#FFC107"/>
<path opacity="0.2" d="M783.789 54.9076C783.789 61.1403 786.293 67.4339 791.302 72.2002C795.988 76.6609 802.088 79.044 808.252 79.3496C808.637 79.3496 809.087 79.4104 809.472 79.4104C809.857 79.4104 810.307 79.4104 810.692 79.3496C816.856 79.044 822.892 76.6609 827.643 72.2002C831.945 68.1063 834.385 62.9124 835.027 57.5963C835.091 56.9243 835.155 56.1907 835.155 55.5187C834.834 61.3846 832.33 67.1284 827.643 71.5891C822.956 76.0498 816.856 78.4329 810.692 78.7385C810.307 78.7385 809.857 78.7993 809.472 78.7993C809.087 78.7993 808.637 78.7993 808.252 78.7385C802.089 78.4329 796.053 76.0498 791.302 71.5891C786.357 66.8841 783.917 60.7735 783.789 54.6021V54.9076Z" fill="white"/>
<path opacity="0.2" d="M847.612 53.6853C845.621 48.9803 842.603 44.5196 838.558 40.7309C835.861 38.1648 832.908 36.0872 829.826 34.376C823.919 31.1988 817.37 29.4876 810.756 29.3046C809.944 29.2435 809.128 29.2435 808.316 29.3046C802.153 29.6102 796.117 31.932 791.366 36.4536C786.293 41.159 783.789 47.3913 783.789 53.6245V53.9909C783.853 47.8194 786.357 41.7088 791.302 37.0039C795.988 32.5431 802.088 30.16 808.252 29.8545C809.087 29.7932 809.922 29.7932 810.692 29.8545C817.305 30.0379 823.855 31.7486 829.762 34.9259C832.908 36.6374 835.861 38.7146 838.494 41.2811C842.539 45.1307 845.557 49.5302 847.547 54.2351C849.538 58.9401 850.501 63.8898 850.501 68.8395C850.63 63.7064 849.666 58.5737 847.612 53.6853ZM853.904 81.3045C851.4 83.688 848.575 85.7039 845.621 87.3542C845.429 87.6594 845.3 87.9649 845.108 88.2705C848.254 86.5597 851.207 84.4821 853.84 81.9156C861.93 74.2164 865.975 64.0728 865.846 53.93C865.911 63.8898 861.866 73.7887 853.904 81.3045Z" fill="#BF360C"/>
<path opacity="0.2" d="M838.494 41.9534C842.539 45.8034 845.557 50.2028 847.547 54.9078C849.538 59.6128 850.501 64.5624 850.501 69.5117C850.565 64.3178 849.602 59.1851 847.548 54.2967C845.557 49.5917 842.539 45.131 838.494 41.3423C835.797 38.7761 832.844 36.6986 829.762 34.9874C823.855 31.8102 817.306 30.099 810.692 29.916C813.389 30.0382 816.086 30.588 818.654 31.5046C822.506 32.36 826.23 33.7043 829.762 35.5985C832.908 37.2484 835.862 39.3872 838.494 41.9534Z" fill="#1A237E"/>
<path opacity="0.2" d="M853.904 26.677C851.207 24.1109 848.254 22.0333 845.171 20.3221C843.374 17.3283 841.191 14.5171 838.494 12.0118C822.442 -3.26403 796.438 -3.26403 780.386 12.0118C777.689 14.5784 775.506 17.3892 773.708 20.3221C761.316 27.0438 752.969 39.7536 752.969 54.2966V54.6026C753.098 40.3647 761.188 27.9609 773.195 21.2392C769.984 26.983 768.379 33.3378 768.379 39.6927C768.508 33.2157 770.241 26.7387 773.708 20.9337C775.507 17.9394 777.689 15.1286 780.386 12.6233C796.438 -2.65293 822.442 -2.65293 838.494 12.6233C840.87 14.8843 842.924 17.3896 844.594 20.0783C833.743 14.3954 820.773 13.7234 809.408 18.1228C804.464 20.017 799.777 22.8891 795.796 26.7387C793.099 29.3052 790.916 32.1161 789.118 35.049C785.587 40.9149 783.789 47.5753 783.789 54.2357C783.789 53.4412 783.853 52.5859 783.918 51.7918C784.367 46.1701 786.165 40.6094 789.182 35.538C790.98 32.5437 793.163 29.7329 795.86 27.2277C799.905 23.3776 804.528 20.506 809.472 18.6118C821.03 14.1511 834.256 14.9456 845.236 20.8728C848.382 22.5835 851.336 24.6611 853.968 27.2277C861.93 34.8043 865.911 44.6424 865.976 54.6026C866.039 44.459 862.058 34.3762 853.904 26.677Z" fill="white"/>
<g filter="url(#filter0_d_541_473)">
<path d="M847.612 54.2967C845.622 49.5917 842.604 45.131 838.559 41.3423C835.862 38.7761 832.909 36.6986 829.827 34.9874C823.92 31.8102 817.371 30.099 810.757 29.916C816.921 30.2211 822.957 32.5434 827.708 37.065C832.331 41.4644 834.835 47.2694 835.156 53.0745C835.156 53.5022 835.22 53.869 835.22 54.2967C835.22 54.7244 835.22 55.0912 835.156 55.5189C834.964 62.118 833.037 68.2895 829.827 73.6668C825.268 81.2439 818.141 87.2932 809.537 90.5926C804.786 92.4259 799.585 93.4647 794.128 93.4647C786.744 93.4647 779.809 91.5705 773.838 88.332C775.636 91.3263 777.819 94.1371 780.515 96.6423C796.567 111.919 822.571 111.919 838.623 96.6423C841.32 94.0758 843.503 91.265 845.301 88.332C851.465 77.8833 852.236 65.2953 847.612 54.2967Z" fill="black"/>
</g>
<path d="M847.611 54.2967C845.621 49.5917 842.603 45.131 838.558 41.3423C835.861 38.7761 832.907 36.6986 829.826 34.9874C823.918 31.8102 817.369 30.099 810.756 29.916C816.92 30.2211 822.955 32.5434 827.706 37.065C832.33 41.4644 834.834 47.2694 835.155 53.0745C835.155 53.5022 835.219 53.869 835.219 54.2967C835.219 54.7244 835.219 55.0912 835.155 55.5189C834.962 62.118 833.036 68.2895 829.826 73.6668C825.267 81.2439 818.14 87.2932 809.536 90.5926C804.785 92.4259 799.584 93.4647 794.126 93.4647C786.742 93.4647 779.808 91.5705 773.836 88.332C775.634 91.3263 777.817 94.1371 780.514 96.6423C796.566 111.919 822.57 111.919 838.622 96.6423C841.319 94.0758 843.502 91.265 845.3 88.332C851.464 77.8833 852.234 65.2953 847.611 54.2967Z" fill="#3367D6"/>
<path opacity="0.2" d="M809.472 91.1426C818.076 87.8429 825.203 81.8548 829.762 74.2169C832.972 68.8395 834.898 62.6677 835.091 56.0685C835.091 55.6408 835.155 55.274 835.155 54.8463V54.5408V55.4578C834.962 62.057 833.036 68.2284 829.826 73.6058C825.267 81.1824 818.14 87.2322 809.536 90.5315C804.785 92.3648 799.584 93.4036 794.126 93.4036C786.742 93.4036 779.808 91.5095 773.836 88.271L774.414 89.1872C780.472 92.3589 787.276 94.0196 794.19 94.0147C799.519 94.0147 804.72 92.9759 809.472 91.1426Z" fill="#1A237E"/>
<path opacity="0.2" d="M774.286 88.5761C780.345 91.7478 787.148 93.4086 794.062 93.4036C799.52 93.4036 804.721 92.3649 809.472 90.5316C818.076 87.2318 825.268 81.2437 829.762 73.6058C832.972 68.2285 834.898 62.0566 835.091 55.4574C835.091 55.9464 835.027 56.4349 834.963 56.9239C834.449 62.729 832.651 68.1672 829.762 72.9947C825.203 80.6326 818.076 86.6211 809.472 89.9205C804.721 91.7538 799.52 92.7925 794.062 92.7925C786.678 92.7925 779.744 90.8984 773.772 87.6599C761.445 80.9995 753.098 68.4119 752.969 53.991V54.2965C752.969 68.8396 761.316 81.5493 773.772 88.2706" fill="#1A237E"/>
<path d="M838.88 41.7087C842.732 45.4362 845.621 49.7744 847.548 54.2963C852.235 65.2953 851.4 77.8825 845.172 88.2704C848.318 86.5596 851.272 84.4821 853.904 81.9155C858.848 77.2105 862.252 71.6502 864.114 65.723L838.88 41.7087Z" fill="url(#paint1_linear_541_473)"/>
<path opacity="0.2" d="M845.171 87.6599C843.374 90.6542 841.191 93.465 838.494 95.9702C822.442 111.247 796.438 111.247 780.386 95.9702C778.048 93.7478 776 91.2654 774.286 88.5766C774.094 88.4544 773.901 88.3936 773.708 88.271C775.506 91.2653 777.689 94.0761 780.386 96.5813C796.438 111.858 822.442 111.858 838.494 96.5813C841.191 94.0152 843.374 91.2044 845.171 88.271C848.767 82.2826 850.565 75.5613 850.501 68.9009C850.437 75.3779 848.703 81.8553 845.171 87.6599Z" fill="#1A237E"/>
<path d="M853.904 26.677C851.207 24.1109 848.253 22.0333 845.171 20.3221C843.374 17.3279 841.191 14.5171 838.494 12.0118C822.442 -3.26403 796.438 -3.26403 780.386 12.0118C777.689 14.5784 775.506 17.3892 773.708 20.3221C761.316 27.0438 752.969 39.7536 752.969 54.2966C752.969 68.8401 761.316 81.5498 773.772 88.2711C775.57 91.2653 777.754 94.0761 780.45 96.5814C796.502 111.858 822.506 111.858 838.558 96.5814C841.255 94.0153 843.438 91.204 845.236 88.2711C848.382 86.5603 851.336 84.4827 853.968 81.9162C869.956 66.7012 869.956 41.8924 853.904 26.677ZM835.155 54.297C835.155 67.8013 823.662 78.739 809.472 78.739C795.282 78.739 783.789 67.8013 783.789 54.297C783.789 40.7928 795.282 29.8551 809.472 29.8551C823.662 29.8551 835.155 40.7928 835.155 54.297Z" fill="url(#paint2_radial_541_473)" fill-opacity="0.1"/>
</g>
<g clip-path="url(#clip6_541_473)">
<path d="M986.606 108.845C986.468 108.845 986.4 108.776 986.263 108.639L983.996 105.204L982.76 106.509V108.639C982.76 108.707 982.691 108.845 982.554 108.845H980.838C980.769 108.845 980.631 108.776 980.631 108.639V97.3067C980.631 97.2375 980.699 97.1 980.837 97.1H982.553C982.622 97.1 982.76 97.1692 982.76 97.3067V104.037L985.851 100.74C985.883 100.677 985.932 100.624 985.992 100.588C986.053 100.551 986.123 100.533 986.193 100.534H988.116C988.186 100.534 988.323 100.603 988.186 100.74L985.301 103.762L988.529 108.707C988.597 108.775 988.597 108.913 988.46 108.913L986.606 108.845ZM972.525 106.787C972.319 106.237 972.182 105.619 972.182 104.726C972.182 103.833 972.25 103.216 972.525 102.666C973.074 101.155 974.448 100.399 976.234 100.399C977.607 100.399 978.637 100.88 979.324 101.704C979.393 101.773 979.393 101.911 979.255 101.911L978.088 102.872C978.019 102.941 977.882 102.941 977.813 102.803C977.333 102.323 976.92 102.117 976.165 102.117C975.34 102.117 974.723 102.46 974.448 103.215C974.242 103.627 974.242 104.108 974.242 104.726C974.242 105.344 974.311 105.825 974.448 106.306C974.723 106.992 975.34 107.404 976.164 107.404C976.921 107.404 977.401 107.13 977.813 106.718C977.882 106.649 978.019 106.649 978.088 106.649L979.255 107.611C979.324 107.68 979.324 107.816 979.324 107.816C978.637 108.573 977.538 109.053 976.234 109.053C974.448 109.122 973.074 108.297 972.525 106.787ZM969.166 108.845C969.097 108.845 968.96 108.776 968.96 108.639V108.021C968.547 108.57 967.723 108.982 966.418 108.982C964.77 108.982 963.397 108.226 963.397 106.441C963.397 104.655 964.77 103.762 966.968 103.762H968.753C968.822 103.762 968.822 103.694 968.822 103.694V103.281C968.822 102.32 968.341 101.908 966.83 101.908C965.869 101.908 965.182 102.183 964.77 102.457C964.701 102.527 964.564 102.527 964.496 102.389L963.809 101.29C963.74 101.222 963.74 101.084 963.877 101.084C964.564 100.604 965.594 100.26 967.037 100.26C969.784 100.26 970.745 101.153 970.745 103.145V108.501C970.745 108.57 970.676 108.707 970.539 108.707L969.166 108.845ZM968.96 106.098V105.479C968.96 105.411 968.891 105.411 968.891 105.411H967.38C966.006 105.411 965.457 105.754 965.457 106.509C965.457 107.197 966.006 107.54 967.037 107.54C968.204 107.471 968.96 107.059 968.96 106.098ZM961.264 109.056C959.478 109.056 958.722 108.232 958.722 106.652V102.257C958.722 102.188 958.654 102.188 958.654 102.188H958.104C958.036 102.188 957.898 102.12 957.898 101.982V100.815C957.898 100.746 957.968 100.608 958.104 100.608H958.654C958.722 100.608 958.722 100.54 958.722 100.54V98.2738C958.722 98.2047 958.792 98.068 958.928 98.068H960.645C960.715 98.068 960.851 98.1364 960.851 98.2738V100.54C960.851 100.608 960.92 100.608 960.92 100.608H962.157C962.225 100.608 962.363 100.678 962.363 100.815V101.982C962.363 102.051 962.294 102.188 962.157 102.188H960.92C960.851 102.188 960.851 102.257 960.851 102.257V106.584C960.851 107.133 961.126 107.339 961.676 107.339H962.156C962.225 107.339 962.363 107.408 962.363 107.545V108.919C962.363 108.987 962.294 109.124 962.157 109.124L961.264 109.056ZM948.009 107.608C947.941 107.54 947.941 107.402 947.941 107.333L949.108 106.097C949.177 106.028 949.314 106.028 949.383 106.028C950.207 106.647 951.443 107.265 952.817 107.265C954.327 107.265 955.221 106.578 955.221 105.548C955.221 104.724 954.672 104.174 952.954 103.9L952.268 103.83C949.864 103.487 948.49 102.457 948.49 100.534C948.49 98.4056 950.207 96.9634 952.749 96.9634C954.327 96.9634 955.839 97.4433 956.799 98.1307C956.869 98.199 956.869 98.2681 956.869 98.3365L955.976 99.5729C955.907 99.6412 955.77 99.6412 955.701 99.6412C954.672 99.023 953.71 98.7489 952.679 98.7489C951.375 98.7489 950.688 99.3671 950.688 100.329C950.688 101.153 951.306 101.702 953.023 101.908L953.71 101.977C956.114 102.32 957.487 103.35 957.487 105.41C957.487 107.471 955.839 109.05 952.749 109.05C950.756 109.119 948.971 108.432 948.009 107.608ZM941.485 108.845C941.416 108.845 941.279 108.776 941.279 108.639V100.672C941.279 100.604 941.347 100.466 941.485 100.466H943.201C943.27 100.466 943.408 100.534 943.408 100.672V101.358H943.476C943.888 100.74 944.712 100.26 945.811 100.26C946.498 100.26 947.254 100.534 947.665 100.947C947.734 101.015 947.734 101.153 947.734 101.153L946.773 102.32C946.704 102.389 946.567 102.389 946.498 102.389C946.086 102.183 945.674 101.977 945.125 101.977C943.957 101.977 943.408 102.732 943.408 104.106V108.57C943.408 108.639 943.339 108.776 943.202 108.776L941.485 108.845ZM932.351 106.787C932.145 106.237 932.007 105.619 932.007 104.726C932.007 103.833 932.076 103.216 932.351 102.666C932.9 101.155 934.205 100.399 936.06 100.399C937.915 100.399 939.218 101.293 939.768 102.666C939.973 103.216 940.111 103.834 940.111 105.207C940.111 105.276 940.042 105.413 939.905 105.413H934.274C934.205 105.413 934.205 105.482 934.205 105.482C934.205 105.688 934.274 105.962 934.342 106.1C934.686 106.924 935.303 107.336 936.334 107.336C937.365 107.336 937.982 106.992 938.463 106.58C938.532 106.512 938.669 106.512 938.806 106.512L939.905 107.405C939.973 107.473 939.973 107.611 939.973 107.611C939.218 108.435 937.914 109.053 936.265 109.053C934.205 109.122 932.831 108.298 932.351 106.787ZM937.776 103.077C937.57 102.392 936.883 101.979 936.06 101.979C935.237 101.979 934.548 102.392 934.274 103.077C934.205 103.284 934.205 103.49 934.205 103.765C934.205 103.834 934.274 103.834 934.274 103.834H937.845C937.914 103.834 937.914 103.765 937.914 103.765C937.845 103.559 937.845 103.285 937.775 103.078L937.776 103.077ZM923.285 107.746C923.216 107.678 923.216 107.541 923.285 107.541L924.384 106.51C924.422 106.477 924.471 106.459 924.521 106.459C924.572 106.459 924.62 106.477 924.659 106.51C925.277 107.06 926.376 107.471 927.337 107.471C928.435 107.471 928.985 107.06 928.985 106.51C928.985 106.03 928.642 105.686 927.475 105.618L926.513 105.548C924.728 105.343 923.766 104.519 923.766 103.145C923.766 101.566 925.003 100.467 927.2 100.467C928.574 100.467 929.741 100.878 930.565 101.428C930.634 101.497 930.634 101.634 930.634 101.634L929.741 102.596C929.673 102.664 929.535 102.664 929.466 102.664C928.917 102.321 927.955 101.977 927.131 101.977C926.238 101.977 925.758 102.321 925.758 102.871C925.758 103.351 926.101 103.626 927.269 103.763L928.23 103.832C930.085 104.038 930.977 104.93 930.977 106.236C930.977 107.884 929.673 109.051 927.2 109.051C925.345 109.12 924.041 108.433 923.285 107.746ZM918.34 108.845C918.271 108.845 918.135 108.776 918.135 108.639L916.418 103.281H916.348L914.632 108.57C914.563 108.639 914.563 108.775 914.425 108.775H912.916C912.847 108.775 912.71 108.707 912.71 108.57L909.894 100.604C909.825 100.534 909.963 100.397 910.032 100.397H911.817C911.954 100.397 912.023 100.466 912.023 100.604L913.74 106.098H913.809L915.525 100.604C915.594 100.534 915.663 100.397 915.732 100.397H917.105C917.174 100.397 917.311 100.466 917.311 100.604L919.097 106.098H919.165L920.813 100.604C920.883 100.465 920.883 100.397 921.02 100.397H922.806C922.874 100.397 923.011 100.466 922.943 100.604L920.195 108.57C920.127 108.639 920.127 108.775 919.989 108.775L918.34 108.845ZM901.652 106.787C901.446 106.237 901.309 105.688 901.309 104.726C901.309 103.764 901.377 103.216 901.652 102.666C902.201 101.155 903.507 100.399 905.36 100.399C907.214 100.399 908.52 101.223 909.069 102.666C909.275 103.216 909.412 103.765 909.412 104.726C909.412 105.688 909.344 106.237 909.069 106.787C908.52 108.297 907.214 109.053 905.36 109.053C903.505 109.053 902.133 108.297 901.652 106.787ZM907.078 106.306C907.283 105.893 907.283 105.482 907.283 104.795C907.283 104.109 907.214 103.696 907.078 103.284C906.803 102.597 906.254 102.186 905.36 102.186C904.536 102.186 903.918 102.597 903.644 103.284C903.437 103.765 903.437 104.108 903.437 104.795C903.437 105.482 903.506 105.893 903.643 106.306C903.918 106.992 904.467 107.404 905.36 107.404C906.184 107.404 906.734 106.992 907.078 106.306ZM895.127 108.845C895.058 108.845 894.921 108.776 894.921 108.639V100.672C894.921 100.604 894.99 100.466 895.127 100.466H896.844C896.913 100.466 897.05 100.534 897.05 100.672V101.358H897.119C897.531 100.74 898.355 100.26 899.453 100.26C900.14 100.26 900.896 100.534 901.308 100.947C901.376 101.015 901.376 101.153 901.376 101.153L900.415 102.32C900.346 102.389 900.209 102.389 900.14 102.389C899.728 102.183 899.316 101.977 898.767 101.977C897.599 101.977 897.05 102.732 897.05 104.106V108.57C897.05 108.639 896.981 108.776 896.844 108.776L895.127 108.845ZM884.551 97.4482C884.551 97.3799 884.619 97.2424 884.757 97.2424H889.495C892.174 97.2424 893.41 98.4788 893.41 100.333C893.41 101.707 892.723 102.393 891.899 102.806V102.874C892.655 103.148 893.616 104.11 893.616 105.552C893.616 107.886 892.036 108.986 889.289 108.986H884.757C884.689 108.986 884.552 108.917 884.552 108.78V97.4482H884.551ZM889.427 102.118C890.525 102.118 891.212 101.5 891.212 100.608C891.212 99.6461 890.526 99.0279 889.427 99.0279H886.886C886.818 99.0279 886.818 99.0962 886.818 99.0962V101.981C886.818 102.05 886.886 102.05 886.886 102.05C886.818 102.118 889.427 102.118 889.427 102.118ZM886.817 107.063H889.497C890.733 107.063 891.42 106.445 891.42 105.415C891.42 104.384 890.732 103.766 889.497 103.766H886.818C886.749 103.766 886.749 103.835 886.749 103.835V106.857C886.68 107.063 886.817 107.063 886.817 107.063Z" fill="black"/>
<path d="M936.591 5.18799L936.268 5.19938L936.559 5.23029C936.814 5.21609 937.069 5.20497 937.324 5.19694C937.08 5.19175 936.835 5.18876 936.591 5.18799ZM944.587 5.9811C951.645 7.58114 957.95 11.5329 962.466 17.188C966.983 22.843 969.443 29.8654 969.443 37.1028C969.436 38.2576 969.366 39.4111 969.233 40.5583C969.248 40.9705 969.256 41.383 969.256 41.7955C969.256 51.5543 965.38 60.9133 958.479 67.8138C951.579 74.7143 942.219 78.591 932.461 78.591C923.34 78.5854 914.546 75.1923 907.785 69.0698C901.024 62.9473 896.778 54.5319 895.87 45.456L895.854 45.9262C895.854 56.7304 900.146 67.0922 907.786 74.7319C915.425 82.3717 925.787 86.6636 936.591 86.6636C947.396 86.6636 957.757 82.3717 965.397 74.7319C973.037 67.0922 977.329 56.7304 977.329 45.9262C977.329 36.5098 974.067 27.3841 968.097 20.1015C962.128 12.819 953.82 7.82922 944.587 5.9811Z" fill="#F4B960"/>
<path d="M932.46 5C922.702 5 913.343 8.87665 906.442 15.7771C899.542 22.6776 895.665 32.0367 895.665 41.7954C895.665 51.5542 899.542 60.9133 906.442 67.8137C913.343 74.7142 922.702 78.5909 932.46 78.5909C937.293 78.5909 942.077 77.6391 946.541 75.79C951.006 73.9408 955.062 71.2305 958.479 67.8137C961.896 64.397 964.606 60.3407 966.455 55.8764C968.304 51.4122 969.256 46.6275 969.256 41.7954C969.255 41.381 969.247 40.9666 969.232 40.5525L969.204 40.7819C968.889 48.0791 965.859 54.9954 960.708 60.1736C955.557 65.3519 948.657 68.4182 941.361 68.771C940.215 68.925 939.06 69.0071 937.904 69.0166L937.712 69.0085L937.529 69.0166C933.338 69.0166 929.188 68.1911 925.316 66.5872C921.444 64.9834 917.926 62.6325 914.962 59.6689C911.999 56.7054 909.648 53.1871 908.044 49.315C906.44 45.443 905.615 41.2929 905.615 37.1019C905.622 28.8138 908.852 20.8534 914.623 14.9048C920.395 8.95623 928.253 5.48609 936.537 5.22858C935.184 5.07686 933.823 5.00082 932.46 5.00081V5Z" fill="#E66F32"/>
<path d="M937.529 5.18799C929.065 5.18799 920.948 8.55034 914.963 14.5354C908.978 20.5204 905.615 28.6378 905.615 37.1019C905.615 45.566 908.978 53.6835 914.963 59.6685C920.948 65.6535 929.065 69.0159 937.529 69.0159L937.72 69.0094C930.534 68.9606 923.659 66.0722 918.594 60.9741C913.529 55.876 910.686 48.9819 910.684 41.7955C910.692 41.4265 910.707 41.0577 910.729 40.6892C910.707 40.3072 910.692 39.9249 910.685 39.5423C910.692 38.3312 910.774 37.1217 910.931 35.9208C911.181 31.7047 912.602 27.6418 915.034 24.1893C917.655 19.9314 921.323 16.4156 925.688 13.9768C930.053 11.538 934.97 10.2576 939.97 10.2574C943.816 10.2572 947.625 11.0145 951.178 12.4862C954.731 13.9579 957.959 16.115 960.679 18.8345C963.398 21.554 965.556 24.7825 967.027 28.3357C968.499 31.8889 969.256 35.6972 969.256 39.5431C969.249 39.9778 969.232 40.4123 969.205 40.8462C969.358 39.6042 969.438 38.3542 969.444 37.1028C969.444 32.9118 968.618 28.7618 967.015 24.8898C965.411 21.0178 963.06 17.4997 960.097 14.5362C957.133 11.5727 953.615 9.22193 949.743 7.61811C945.871 6.01428 941.721 5.1888 937.53 5.1888L937.529 5.18799Z" fill="#E43C41"/>
<path d="M939.97 10.2566C935.002 10.2604 930.117 11.5282 925.774 13.9405C921.431 16.3528 917.773 19.8305 915.144 24.0461C917.246 21.1173 920.015 18.7307 923.222 17.0838C926.429 15.4368 929.982 14.5766 933.587 14.5744C933.886 14.5753 934.185 14.582 934.484 14.5947C935.368 14.4629 936.26 14.3933 937.154 14.3865C938.419 14.3871 939.681 14.5133 940.92 14.7631C947.573 15.5046 953.719 18.6714 958.185 23.6583C962.65 28.6452 965.121 35.1025 965.126 41.7964C965.121 48.4125 962.707 54.8003 958.334 59.7657C953.962 64.7311 947.931 67.9341 941.369 68.7759C948.882 68.417 955.968 65.1809 961.16 59.7385C966.352 54.2961 969.251 47.0647 969.255 39.5431C969.255 35.6973 968.498 31.889 967.026 28.3359C965.555 24.7827 963.398 21.5543 960.678 18.8348C957.959 16.1153 954.731 13.9582 951.177 12.4864C947.624 11.0147 943.816 10.2565 939.97 10.2566ZM910.933 35.872C910.774 37.0893 910.691 38.3154 910.685 39.5431C910.691 39.9243 910.705 40.3053 910.727 40.686C910.759 39.9149 910.823 39.1456 910.919 38.3799C910.894 38.017 910.879 37.6535 910.872 37.2899C910.878 36.8165 910.898 36.3441 910.933 35.872Z" fill="#BDD041"/>
<path d="M940.714 14.7212C945.097 15.5506 949.052 17.884 951.898 21.3188C954.744 24.7535 956.302 29.074 956.302 33.5346C956.298 33.9988 956.278 34.4628 956.242 34.9256C956.277 35.3369 956.297 35.7493 956.302 36.162C956.302 36.3356 956.299 36.5091 956.294 36.6826C956.299 36.8849 956.302 37.0871 956.302 37.2895C956.302 43.314 953.909 49.0918 949.649 53.3517C945.389 57.6117 939.611 60.005 933.587 60.005C927.743 60 922.126 57.7431 917.903 53.7035C913.68 49.6638 911.177 44.1522 910.913 38.3144C910.762 39.4685 910.685 40.6312 910.683 41.7951C910.683 49.0146 913.551 55.9385 918.656 61.0434C921.184 63.5711 924.185 65.5762 927.487 66.9442C930.79 68.3122 934.33 69.0163 937.904 69.0163C945.124 69.0163 952.048 66.1484 957.153 61.0434C962.258 55.9385 965.125 49.0146 965.125 41.7951C965.125 35.0624 962.629 28.5687 958.121 23.5684C953.612 18.5681 947.411 15.4161 940.714 14.7212Z" fill="#6DB54C"/>
<path d="M933.587 14.5742C927.562 14.5742 921.784 16.9675 917.524 21.2274C913.264 25.4874 910.871 31.2652 910.871 37.2897C910.871 43.3142 913.264 49.092 917.524 53.352C921.784 57.612 927.562 60.0052 933.587 60.0052C939.611 60.0052 945.389 57.612 949.649 53.352C953.909 49.092 956.302 43.3142 956.302 37.2897C956.302 37.089 956.299 36.8884 956.294 36.6878C956.158 41.0261 954.338 45.1411 951.221 48.1617C948.104 51.1823 943.934 52.8713 939.594 52.8713C938.787 52.8665 937.982 52.8031 937.184 52.6818L937.154 52.6834C932.075 52.6834 927.205 50.666 923.613 47.0749C920.022 43.4839 918.005 38.6134 918.005 33.5348C918.008 28.9276 919.673 24.4759 922.693 20.9965C925.713 17.5171 929.886 15.2433 934.447 14.5921C934.161 14.5807 933.875 14.5748 933.588 14.5742H933.587Z" fill="#AEDAE6"/>
<path d="M937.154 14.3862C932.075 14.3862 927.205 16.4037 923.614 19.9947C920.023 23.5858 918.005 28.4563 918.005 33.5348C918.005 38.6133 920.023 43.4838 923.614 47.0748C927.205 50.6659 932.075 52.6833 937.154 52.6833C935.907 52.6836 934.665 52.5201 933.461 52.1969C933.06 52.089 932.664 51.9642 932.274 51.8227C931.102 51.3966 929.992 50.8184 928.971 50.103C928.631 49.8644 928.301 49.6115 927.983 49.3449C927.665 49.0777 927.359 48.7971 927.066 48.5038C926.478 47.9167 925.943 47.2792 925.466 46.5987C923.787 44.2003 922.886 41.3433 922.886 38.4154C922.888 38.0505 922.904 37.6859 922.934 37.3222C922.905 36.9364 922.888 36.5498 922.885 36.163C922.885 31.7317 924.646 27.4819 927.779 24.3485C930.912 21.2151 935.162 19.4548 939.593 19.4548C943.809 19.4559 947.869 21.0509 950.959 23.9199C954.048 26.7888 955.939 30.7197 956.251 34.9241C956.285 34.4618 956.302 33.9983 956.302 33.5348C956.302 31.0201 955.807 28.5301 954.845 26.2069C953.883 23.8837 952.472 21.7728 950.694 19.9947C948.916 18.2166 946.805 16.8061 944.482 15.8438C942.159 14.8815 939.669 14.3862 937.154 14.3862Z" fill="#56B8DE"/>
<path d="M939.594 19.4548C935.163 19.4548 930.913 21.2152 927.779 24.3485C924.646 27.4819 922.886 31.7317 922.886 36.163C922.886 36.5631 922.901 36.963 922.93 37.362L922.935 37.2376C922.968 36.8456 923.016 36.4551 923.081 36.067C923.146 35.6792 923.227 35.2941 923.323 34.9128C923.515 34.15 923.771 33.4045 924.087 32.6839C924.246 32.3241 924.418 31.9707 924.605 31.6248C924.793 31.2793 924.994 30.9414 925.209 30.6121C925.855 29.6231 926.621 28.7184 927.491 27.9187C927.78 27.6527 928.08 27.3984 928.39 27.1565C928.701 26.9154 929.021 26.687 929.35 26.4716C929.68 26.2566 930.017 26.055 930.363 25.8672C931.055 25.4928 931.777 25.1764 932.521 24.9212C934.012 24.4089 935.577 24.1477 937.154 24.1484C937.285 24.1483 937.416 24.1499 937.547 24.1533C937.809 24.1606 938.071 24.175 938.332 24.1964C938.593 24.2182 938.854 24.2469 939.113 24.2826C940.414 24.4627 941.683 24.8219 942.885 25.3499C943.125 25.4552 943.362 25.567 943.596 25.685C944.064 25.9224 944.518 26.1847 944.958 26.4708C945.067 26.5426 945.176 26.6158 945.283 26.6904C945.499 26.8401 945.71 26.9955 945.918 27.1565C946.021 27.2371 946.123 27.319 946.224 27.4022C946.73 27.8189 947.207 28.2701 947.651 28.7525C948.006 29.1386 948.34 29.5435 948.651 29.9654C948.728 30.0712 948.804 30.178 948.879 30.2859C949.102 30.6092 949.313 30.9413 949.51 31.2815C949.706 31.6222 949.889 31.9706 950.057 32.326C950.113 32.4446 950.167 32.5639 950.22 32.6839C950.325 32.9242 950.424 33.1672 950.516 33.4128C950.562 33.5355 950.606 33.6589 950.649 33.7829C950.734 34.0307 950.812 34.2808 950.884 34.5329C950.919 34.659 950.953 34.7857 950.985 34.9128C951.113 35.4214 951.214 35.9365 951.286 36.4559C951.304 36.5858 951.321 36.716 951.335 36.8463C951.349 36.9763 951.362 37.1065 951.373 37.2368C951.394 37.4983 951.408 37.7603 951.416 38.0226C951.419 38.1535 951.421 38.2845 951.421 38.4155C951.421 42.1995 949.918 45.8286 947.242 48.5044C944.567 51.1801 940.938 52.6833 937.154 52.6833L937.108 52.6817C937.931 52.8068 938.762 52.8702 939.595 52.8712C944.026 52.8712 948.276 51.1109 951.409 47.9775C954.543 44.8441 956.303 40.5943 956.303 36.163C956.303 31.7317 954.543 27.4819 951.409 24.3485C948.276 21.2152 944.025 19.4548 939.594 19.4548Z" fill="#00B1D5"/>
<path d="M937.154 24.1477C933.37 24.1477 929.74 25.6509 927.065 28.3267C924.389 31.0024 922.886 34.6315 922.886 38.4156C922.886 42.1996 924.389 45.8287 927.065 48.5045C929.74 51.1802 933.37 52.6834 937.154 52.6834C940.938 52.6834 944.567 51.1802 947.242 48.5045C949.918 45.8287 951.421 42.1996 951.421 38.4156C951.421 34.6315 949.918 31.0024 947.242 28.3267C944.567 25.6509 940.938 24.1477 937.154 24.1477ZM943.985 28.9804C944.243 28.9849 944.488 29.0382 944.712 29.139C945.393 29.4448 945.852 30.1711 945.988 31.1581C946.124 32.145 945.926 33.3119 945.437 34.402C944.948 35.4923 944.208 36.4165 943.38 36.9713C942.553 37.5261 941.705 37.6661 941.023 37.3605C940.342 37.0545 939.883 36.328 939.747 35.3409C939.611 34.3538 939.81 33.1868 940.299 32.0967C940.705 31.1921 941.286 30.3966 941.953 29.8333C942.619 29.27 943.333 28.9705 943.984 28.9812L943.985 28.9804Z" fill="#221F1F"/>
<path d="M944.713 29.1389C945.394 29.445 945.853 30.1713 945.988 31.1583C946.124 32.1452 945.926 33.3119 945.437 34.4019C944.948 35.4921 944.208 36.4164 943.38 36.9712C942.552 37.526 941.704 37.666 941.023 37.3604C940.342 37.0543 939.883 36.3279 939.747 35.341C939.612 34.3541 939.81 33.1873 940.299 32.0974C940.788 31.0074 941.528 30.0834 942.355 29.5286C943.183 28.9738 944.031 28.8336 944.713 29.1389Z" fill="white"/>
</g>
<defs>
<filter id="filter0_d_541_473" x="773.568" y="29.3772" width="79.9795" height="81.4165" filterUnits="userSpaceOnUse" color-interpolation-filters="sRGB">
<feFlood flood-opacity="0" result="BackgroundImageFix"/>
<feColorMatrix in="SourceAlpha" type="matrix" values="0 0 0 0 0 0 0 0 0 0 0 0 0 0 0 0 0 0 127 0" result="hardAlpha"/>
<feOffset dx="1.34705" dy="1.07764"/>
<feGaussianBlur stdDeviation="0.80823"/>
<feColorMatrix type="matrix" values="0 0 0 0 0.768627 0 0 0 0 0.489469 0 0 0 0 0.0235294 0 0 0 0.2 0"/>
<feBlend mode="normal" in2="BackgroundImageFix" result="effect1_dropShadow_541_473"/>
<feBlend mode="normal" in="SourceGraphic" in2="effect1_dropShadow_541_473" result="shape"/>
</filter>
<linearGradient id="paint0_linear_541_473" x1="124.851" y1="46.4263" x2="124.851" y2="67.3542" gradientUnits="userSpaceOnUse">
<stop stop-color="#2684FF"/>
<stop offset="1" stop-color="#0052CC"/>
</linearGradient>
<linearGradient id="paint1_linear_541_473" x1="875.797" y1="2102.48" x2="3142.71" y2="2736.09" gradientUnits="userSpaceOnUse">
<stop stop-color="#BF360C" stop-opacity="0.2"/>
<stop offset="1" stop-color="#BF360C" stop-opacity="0"/>
</linearGradient>
<radialGradient id="paint2_radial_541_473" cx="0" cy="0" r="1" gradientUnits="userSpaceOnUse" gradientTransform="translate(2207.89 1443.63) scale(11216.1 10674)">
<stop stop-color="white"/>
<stop offset="1" stop-color="white" stop-opacity="0"/>
</radialGradient>
<clipPath id="clip0_541_473">
<rect width="104.306" height="104.306" fill="white" transform="translate(114.387 4.90771)"/>
</clipPath>
<clipPath id="clip1_541_473">
<rect width="113.338" height="113.338" fill="white" transform="translate(236.863 0.391602)"/>
</clipPath>
<clipPath id="clip2_541_473">
<rect width="113.338" height="113.338" fill="white" transform="translate(368.372 0.391602)"/>
</clipPath>
<clipPath id="clip3_541_473">
<rect width="104.306" height="104.306" fill="white" transform="translate(499.88 4.90771)"/>
</clipPath>
<clipPath id="clip4_541_473">
<rect width="112.121" height="112.121" fill="white" transform="translate(622.356 1)"/>
</clipPath>
<clipPath id="clip5_541_473">
<rect width="113.684" height="113.684" fill="white" transform="translate(752.648 0.21875)"/>
</clipPath>
<clipPath id="clip6_541_473">
<rect width="104.121" height="104.121" fill="white" transform="translate(884.502 5)"/>
</clipPath>
</defs>
</svg>
