<svg width="29" height="30" viewBox="0 0 29 30" fill="none" xmlns="http://www.w3.org/2000/svg">
<g clip-path="url(#clip0_541_623)">
<path d="M14.6907 11.5383C13.9889 11.5383 13.3028 11.7469 12.7192 12.1377C12.1356 12.5286 11.6807 13.0841 11.4121 13.7341C11.1436 14.384 11.0733 15.0992 11.2102 15.7892C11.3471 16.4791 11.6851 17.1129 12.1814 17.6104C12.6777 18.1078 13.31 18.4466 13.9984 18.5838C14.6868 18.7211 15.4003 18.6506 16.0488 18.3814C16.6972 18.1122 17.2515 17.6563 17.6414 17.0714C18.0313 16.4864 18.2395 15.7987 18.2395 15.0952C18.2395 14.6281 18.1477 14.1656 17.9693 13.7341C17.791 13.3025 17.5296 12.9104 17.2001 12.5801C16.8705 12.2498 16.4793 11.9878 16.0488 11.809C15.6182 11.6303 15.1568 11.5383 14.6907 11.5383ZM28.9 8.02437C28.8925 6.91679 28.689 5.81931 28.299 4.78296C28.0118 4.02462 27.5674 3.33594 26.9951 2.76237C26.4229 2.1888 25.7358 1.74338 24.9792 1.4555C23.9453 1.06461 22.8503 0.860659 21.7453 0.853114C19.8994 0.752716 19.3556 0.752716 14.6907 0.752716C10.0259 0.752716 9.48213 0.752716 7.63621 0.853114C6.53118 0.860659 5.43624 1.06461 4.40229 1.4555C3.64569 1.74338 2.9586 2.1888 2.38636 2.76237C1.81411 3.33594 1.36972 4.02462 1.08251 4.78296C0.692525 5.81931 0.489041 6.91679 0.481513 8.02437C0.381348 9.87456 0.381348 10.4196 0.381348 15.0952C0.381348 19.7709 0.381348 20.3159 0.481513 22.1661C0.496916 23.2776 0.700124 24.3784 1.08251 25.4219C1.36845 26.1767 1.81247 26.8614 2.38466 27.4298C2.95445 28.0068 3.64302 28.4522 4.40229 28.735C5.43624 29.1259 6.53118 29.3298 7.63621 29.3374C9.48213 29.4378 10.0259 29.4378 14.6907 29.4378C19.3556 29.4378 19.8994 29.4378 21.7453 29.3374C22.8503 29.3298 23.9453 29.1259 24.9792 28.735C25.7385 28.4522 26.427 28.0068 26.9968 27.4298C27.569 26.8614 28.013 26.1767 28.299 25.4219C28.6886 24.3804 28.892 23.2783 28.9 22.1661C29.0001 20.3159 29.0001 19.7709 29.0001 15.0952C29.0001 10.4196 29.0001 9.87456 28.9 8.02437ZM25.2654 19.4984C25.2195 20.3835 25.031 21.2553 24.7073 22.08C24.4295 22.768 24.0166 23.393 23.493 23.9178C22.9694 24.4426 22.3458 24.8566 21.6594 25.135C20.8288 25.4414 19.9541 25.6109 19.0694 25.637H10.3121C9.42736 25.6109 8.55271 25.4414 7.72207 25.135C7.01247 24.8707 6.37166 24.449 5.84754 23.9015C5.32906 23.387 4.92865 22.7654 4.67417 22.08C4.36731 21.2483 4.20283 20.3707 4.18765 19.4841V10.7064C4.20283 9.81981 4.36731 8.94213 4.67417 8.11043C4.93786 7.39919 5.35855 6.75689 5.90478 6.23156C6.42039 5.71469 7.03989 5.31377 7.72207 5.05547C8.55271 4.74912 9.42736 4.5796 10.3121 4.55348H19.0694C19.9541 4.5796 20.8288 4.74912 21.6594 5.05547C22.369 5.31978 23.0098 5.74144 23.534 6.28893C24.0524 6.80347 24.4528 7.42505 24.7073 8.11043C25.013 8.943 25.1821 9.81967 25.2082 10.7064V15.0952C25.2082 18.0498 25.3083 18.351 25.2654 19.4841V19.4984ZM22.9759 8.82756C22.8055 8.36427 22.5369 7.94354 22.1886 7.59441C21.8402 7.24527 21.4205 6.97603 20.9583 6.80526C20.3236 6.58476 19.6552 6.47795 18.9836 6.48973H10.3979C9.72291 6.49634 9.05437 6.62259 8.42323 6.86263C7.96809 7.02564 7.55278 7.28389 7.2049 7.6202C6.85703 7.95652 6.58456 8.3632 6.4056 8.81321C6.1978 9.45198 6.09628 10.1207 6.10511 10.7925V19.398C6.11929 20.0738 6.24501 20.7426 6.47715 21.3773C6.64752 21.8405 6.91614 22.2613 7.26447 22.6104C7.61281 22.9596 8.03256 23.2288 8.49478 23.3996C9.10531 23.6246 9.74778 23.7505 10.3979 23.7725H18.9836C19.6586 23.7659 20.3271 23.6396 20.9583 23.3996C21.4205 23.2288 21.8402 22.9596 22.1886 22.6104C22.5369 22.2613 22.8055 21.8405 22.9759 21.3773C23.2154 20.7447 23.3413 20.0746 23.3479 19.398V10.7925C23.3483 10.1152 23.2222 9.44389 22.9759 8.81321V8.82756ZM14.6907 20.5741C13.9736 20.5741 13.2635 20.4323 12.6011 20.1568C11.9387 19.8812 11.3371 19.4774 10.8306 18.9685C10.3242 18.4596 9.92289 17.8555 9.64975 17.1908C9.37661 16.5262 9.23698 15.8141 9.23886 15.0952C9.23887 14.011 9.55982 12.9512 10.1611 12.0499C10.7624 11.1486 11.6169 10.4463 12.6166 10.0321C13.6162 9.61783 14.716 9.51017 15.7767 9.72274C16.8375 9.93531 17.8114 10.4585 18.5753 11.2262C19.3392 11.9939 19.8587 12.9715 20.068 14.0352C20.2773 15.0989 20.167 16.201 19.751 17.2019C19.3351 18.2027 18.6323 19.0574 17.7315 19.6577C16.8307 20.258 15.7725 20.5769 14.6907 20.5741ZM20.4145 10.6921C20.0982 10.6585 19.8055 10.5088 19.5927 10.2718C19.3799 10.0348 19.2622 9.72725 19.2622 9.40843C19.2622 9.0896 19.3799 8.78206 19.5927 8.54505C19.8055 8.30804 20.0982 8.15833 20.4145 8.12477C20.7308 8.15833 21.0236 8.30804 21.2363 8.54505C21.4491 8.78206 21.5668 9.0896 21.5668 9.40843C21.5668 9.72725 21.4491 10.0348 21.2363 10.2718C21.0236 10.5088 20.7308 10.6585 20.4145 10.6921Z" fill="#1E1E1E"/>
</g>
<defs>
<clipPath id="clip0_541_623">
<rect width="28.6188" height="28.685" fill="white" transform="translate(0.381348 0.752716)"/>
</clipPath>
</defs>
</svg>
